<svg width="109" height="36" viewBox="0 0 109 36" fill="none" xmlns="http://www.w3.org/2000/svg">
<path opacity="0.972" fill-rule="evenodd" clip-rule="evenodd" d="M40.6825 0C41.2531 0 41.8237 0 42.3944 0C44.4648 0.195752 46.3111 0.950997 47.9328 2.26574C47.2808 3.25211 46.5926 4.20875 45.8685 5.13567C44.5263 4.17901 43.0326 3.60838 41.3874 3.42378C40.4647 3.38957 39.7765 3.7588 39.323 4.53147C39.1365 5.35 39.4218 5.93742 40.179 6.29371C41.7796 6.82818 43.3908 7.33168 45.0125 7.8042C48.1607 9.1513 49.1509 11.4506 47.9832 14.7021C47.2817 16.136 46.1572 17.0591 44.6097 17.4713C41.6133 18.1677 38.7938 17.7312 36.151 16.1623C35.6346 15.8302 35.1648 15.4443 34.7412 15.0042C35.4493 14.0574 36.2046 13.1511 37.0069 12.2853C38.4839 13.5436 40.1958 14.2485 42.1426 14.4C42.761 14.3614 43.3485 14.2104 43.9049 13.9469C44.6905 13.2502 44.7576 12.5118 44.1063 11.7315C43.7316 11.477 43.3288 11.2756 42.8979 11.1273C41.8327 10.7939 40.7586 10.4918 39.6755 10.221C35.8518 9.13635 34.5931 6.70278 35.8993 2.92028C36.504 1.81222 37.3934 1.02341 38.5678 0.553847C39.2666 0.297325 39.9715 0.11271 40.6825 0Z" fill="white"/>
<path opacity="0.977" fill-rule="evenodd" clip-rule="evenodd" d="M23.5639 0.100807C24.7972 0.068399 26.0224 0.101965 27.2395 0.201506C29.6731 5.94137 32.1066 11.6812 34.5402 17.4211C33.1988 17.5385 31.8561 17.5553 30.5122 17.4714C29.959 16.2308 29.4555 14.9721 29.0017 13.6952C26.584 13.6617 24.1672 13.6952 21.7514 13.7959C21.2479 15.0043 20.7444 16.2127 20.2409 17.4211C18.8994 17.5385 17.5568 17.5553 16.2129 17.4714C18.7059 11.6969 21.1562 5.90675 23.5639 0.100807ZM25.2758 5.03508C25.4555 5.14321 25.573 5.31103 25.6283 5.53857C26.2798 7.10784 26.9008 8.68546 27.4912 10.2714C26.0475 10.2883 24.6041 10.2714 23.1611 10.2211C23.8803 8.49751 24.5852 6.76884 25.2758 5.03508Z" fill="white"/>
<path opacity="0.971" fill-rule="evenodd" clip-rule="evenodd" d="M0 0.302246C1.30909 0.302246 2.61818 0.302246 3.92728 0.302246C3.92728 2.5512 3.92728 4.80016 3.92728 7.04911C6.2098 7.04911 8.49231 7.04911 10.7748 7.04911C10.7748 4.80016 10.7748 2.5512 10.7748 0.302246C12.0839 0.302246 13.393 0.302246 14.7021 0.302246C14.7021 6.04211 14.7021 11.782 14.7021 17.5218C13.393 17.5218 12.0839 17.5218 10.7748 17.5218C10.7748 15.2393 10.7748 12.9568 10.7748 10.6743C8.49231 10.6743 6.2098 10.6743 3.92728 10.6743C3.92728 12.9568 3.92728 15.2393 3.92728 17.5218C2.61818 17.5218 1.30909 17.5218 0 17.5218C0 11.782 0 6.04211 0 0.302246Z" fill="white"/>
<path opacity="0.984" fill-rule="evenodd" clip-rule="evenodd" d="M50.5518 0.302246C51.8273 0.302246 53.1028 0.302246 54.3783 0.302246C54.3783 2.5512 54.3783 4.80016 54.3783 7.04911C56.6609 7.04911 58.9433 7.04911 61.2259 7.04911C61.2259 4.80016 61.2259 2.5512 61.2259 0.302246C62.535 0.302246 63.8441 0.302246 65.1532 0.302246C65.1532 6.04211 65.1532 11.782 65.1532 17.5218C63.8441 17.5218 62.535 17.5218 61.2259 17.5218C61.2259 15.2393 61.2259 12.9568 61.2259 10.6743C58.9433 10.6743 56.6609 10.6743 54.3783 10.6743C54.3783 12.9568 54.3783 15.2393 54.3783 17.5218C53.1028 17.5218 51.8273 17.5218 50.5518 17.5218C50.5518 11.782 50.5518 6.04211 50.5518 0.302246Z" fill="white"/>
<path opacity="0.975" fill-rule="evenodd" clip-rule="evenodd" d="M71.2959 0.302189C73.1424 0.285411 74.9886 0.302195 76.8344 0.352539C74.1645 3.03925 71.4792 5.70778 68.7785 8.35814C67.8386 7.48541 66.9323 6.57911 66.0596 5.63926C67.8072 3.85814 69.5526 2.07912 71.2959 0.302189Z" fill="white"/>
<path opacity="0.987" fill-rule="evenodd" clip-rule="evenodd" d="M78.1436 0.302246C82.5072 0.302246 86.8709 0.302246 91.2345 0.302246C91.2345 1.4435 91.2345 2.58477 91.2345 3.72603C88.1463 3.72603 85.0583 3.72603 81.9701 3.72603C81.9701 4.86728 81.9701 6.00855 81.9701 7.1498C84.689 7.1498 87.4079 7.1498 90.1268 7.1498C90.1268 8.29106 90.1268 9.43233 90.1268 10.5736C87.4079 10.5736 84.689 10.5736 81.9701 10.5736C81.9701 11.7484 81.9701 12.9232 81.9701 14.0981C85.0918 14.0981 88.2135 14.0981 91.3352 14.0981C91.3352 15.2393 91.3352 16.3806 91.3352 17.5218C86.9379 17.5218 82.5408 17.5218 78.1436 17.5218C78.1436 11.782 78.1436 6.04211 78.1436 0.302246Z" fill="white"/>
<path opacity="0.979" fill-rule="evenodd" clip-rule="evenodd" d="M108.957 0.302187C108.957 0.335753 108.957 0.36932 108.957 0.402887C106.735 3.80305 104.537 7.22683 102.361 10.6742C102.311 12.9565 102.294 15.239 102.311 17.5218C101.035 17.5218 99.7596 17.5218 98.484 17.5218C98.5009 15.2726 98.484 13.0236 98.4337 10.7749C96.2351 7.30079 94.0365 3.82667 91.8379 0.352537C93.3484 0.285404 94.8589 0.285404 96.3694 0.352537C97.7415 2.57632 99.1009 4.80849 100.448 7.04905C101.794 4.80849 103.153 2.57632 104.526 0.352537C106.002 0.302196 107.48 0.285413 108.957 0.302187Z" fill="white"/>
<path opacity="0.978" fill-rule="evenodd" clip-rule="evenodd" d="M68.6778 9.56641C71.4049 12.1424 74.0902 14.7774 76.7337 17.4713C74.9211 17.5385 73.1085 17.5385 71.2959 17.4713C69.5505 15.7259 67.805 13.9804 66.0596 12.2349C66.9527 11.3587 67.8254 10.4692 68.6778 9.56641Z" fill="white"/>
<path opacity="0.921" fill-rule="evenodd" clip-rule="evenodd" d="M82.1709 23.8652C82.943 23.8652 83.7149 23.8652 84.487 23.8652C84.487 24.503 84.487 25.1408 84.487 25.7785C83.7149 25.7785 82.943 25.7785 82.1709 25.7785C82.1709 25.1408 82.1709 24.503 82.1709 23.8652Z" fill="white"/>
<path opacity="0.92" fill-rule="evenodd" clip-rule="evenodd" d="M98.1826 23.8652C98.921 23.8652 99.6596 23.8652 100.398 23.8652C100.398 27.1883 100.398 30.5114 100.398 33.8345C99.6596 33.8345 98.921 33.8345 98.1826 33.8345C98.1826 30.5114 98.1826 27.1883 98.1826 23.8652Z" fill="white"/>
<path opacity="0.95" fill-rule="evenodd" clip-rule="evenodd" d="M60.4204 24.1689C61.7993 24.0051 63.1084 24.2233 64.3477 24.8235C64.6818 25.057 64.9839 25.3254 65.254 25.629C64.8599 26.1978 64.4067 26.7181 63.8946 27.1899C63.4131 26.7559 62.8593 26.437 62.233 26.2332C60.1237 25.9926 58.9825 26.9325 58.8092 29.0528C58.9825 31.1732 60.1237 32.1131 62.233 31.8724C62.8975 31.6433 63.485 31.2909 63.9953 30.8151C64.4316 31.2514 64.868 31.6878 65.3044 32.1242C65.3715 32.1913 65.3715 32.2584 65.3044 32.3256C63.9705 33.7323 62.3425 34.2525 60.4204 33.8864C57.945 33.236 56.636 31.6248 56.4932 29.0528C56.6843 26.4979 57.9934 24.8699 60.4204 24.1689Z" fill="white"/>
<path opacity="0.964" fill-rule="evenodd" clip-rule="evenodd" d="M50.5512 24.6714C52.0739 26.0094 53.5173 27.436 54.8813 28.9511C53.4925 30.4407 52.0659 31.9008 50.6016 33.3315C50.5512 30.445 50.5344 27.5583 50.5512 24.6714Z" fill="white"/>
<path opacity="0.964" fill-rule="evenodd" clip-rule="evenodd" d="M85.997 24.6714C86.7019 24.6714 87.4068 24.6714 88.1117 24.6714C88.1117 25.2756 88.1117 25.8798 88.1117 26.484C88.6824 26.484 89.2529 26.484 89.8236 26.484C89.8236 27.0882 89.8236 27.6924 89.8236 28.2966C89.2529 28.2966 88.6824 28.2966 88.1117 28.2966C88.0678 29.4791 88.1181 30.6539 88.2627 31.821C88.7803 32.0927 89.2838 32.0592 89.7732 31.7203C89.8547 32.3496 89.8379 32.9706 89.7229 33.5833C88.7132 34.0484 87.7062 34.0484 86.7019 33.5833C86.4395 33.3881 86.2549 33.1364 86.1481 32.828C86.0036 31.3234 85.9533 29.8129 85.997 28.2966C85.7284 28.2966 85.46 28.2966 85.1914 28.2966C85.1914 27.6924 85.1914 27.0882 85.1914 26.484C85.46 26.484 85.7284 26.484 85.997 26.484C85.997 25.8798 85.997 25.2756 85.997 24.6714Z" fill="white"/>
<path opacity="0.945" fill-rule="evenodd" clip-rule="evenodd" d="M68.6761 26.3833C70.0141 26.2258 71.1386 26.6286 72.0495 27.5917C72.2643 27.9675 72.3985 28.3703 72.4523 28.8001C72.5027 30.478 72.5195 32.1564 72.5027 33.8351C71.7978 33.8351 71.0929 33.8351 70.388 33.8351C70.4043 33.6309 70.3875 33.4295 70.3376 33.2309C69.3038 33.9797 68.1793 34.1307 66.9642 33.684C65.7986 32.9016 65.4797 31.8442 66.0075 30.512C66.7006 29.6141 67.6236 29.2113 68.7768 29.3036C69.3564 29.2819 69.9102 29.3826 70.4383 29.6057C70.4691 28.981 70.1838 28.5615 69.5824 28.3469C68.6735 28.2138 67.8007 28.3313 66.9642 28.6994C66.7325 28.1553 66.5311 27.6015 66.36 27.0378C67.1133 26.7073 67.8854 26.489 68.6761 26.3833ZM68.8775 30.6127C69.4217 30.604 69.942 30.7047 70.4383 30.9148C70.4928 31.9179 70.0061 32.4214 68.9782 32.4253C68.0768 32.3831 67.758 31.9466 68.0215 31.1162C68.263 30.8535 68.5483 30.6857 68.8775 30.6127Z" fill="white"/>
<path opacity="0.959" fill-rule="evenodd" clip-rule="evenodd" d="M75.8266 35.9498C75.1217 35.9498 74.4168 35.9498 73.7119 35.9498C73.7119 32.7946 73.7119 29.6392 73.7119 26.484C74.4168 26.484 75.1217 26.484 75.8266 26.484C75.81 26.7879 75.8268 27.09 75.877 27.3903C76.6221 26.4937 77.5788 26.1748 78.7469 26.4337C80.5146 27.0292 81.3873 28.2712 81.3651 30.1596C81.2719 32.7707 79.9292 34.0126 77.3371 33.8854C76.7504 33.7683 76.2637 33.4829 75.877 33.0295C75.8266 34.0023 75.8099 34.9758 75.8266 35.9498ZM77.1357 28.1959C78.4336 28.2013 79.1385 28.8558 79.2504 30.1596C78.998 31.8615 78.0917 32.3985 76.5315 31.7708C75.8324 31.07 75.6478 30.2476 75.9777 29.3036C76.2231 28.7725 76.6091 28.4034 77.1357 28.1959Z" fill="white"/>
<path opacity="0.948" fill-rule="evenodd" clip-rule="evenodd" d="M93.1469 26.3833C94.2471 26.2882 95.2541 26.5399 96.1679 27.1386C96.567 27.5844 96.8187 28.1047 96.9232 28.6994C96.9735 30.411 96.9903 32.1229 96.9735 33.8351C96.3021 33.8351 95.6309 33.8351 94.9595 33.8351C94.9759 33.5978 94.9592 33.3628 94.9092 33.1302C93.8705 33.981 92.7124 34.1656 91.435 33.6841C90.1191 32.6992 89.901 31.5075 90.7805 30.1092C91.4887 29.5096 92.311 29.241 93.2476 29.3036C93.8273 29.282 94.3811 29.3827 94.9092 29.6057C94.9381 28.9762 94.6528 28.5565 94.0532 28.347C93.1587 28.2116 92.3028 28.3292 91.4854 28.6994C91.194 28.1612 91.0261 27.5906 90.9819 26.9875C91.6856 26.6818 92.4072 26.4804 93.1469 26.3833ZM93.3483 30.6127C93.8972 30.5784 94.4176 30.6791 94.9092 30.9148C94.9654 31.9164 94.4787 32.4199 93.449 32.4253C92.5532 32.3876 92.2343 31.9513 92.4924 31.1162C92.7339 30.8536 93.0191 30.6857 93.3483 30.6127Z" fill="white"/>
<path opacity="0.971" fill-rule="evenodd" clip-rule="evenodd" d="M82.2715 26.4844C82.9764 26.4844 83.6813 26.4844 84.3862 26.4844C84.3862 28.9347 84.3862 31.3851 84.3862 33.8354C83.6813 33.8354 82.9764 33.8354 82.2715 33.8354C82.2715 31.3851 82.2715 28.9347 82.2715 26.4844Z" fill="white"/>
</svg>
