<svg width="82" height="41" viewBox="0 0 82 41" fill="none" xmlns="http://www.w3.org/2000/svg">
<path d="M53.7617 40.7352C53.7727 40.7254 53.7836 40.7166 53.7968 40.71C53.8636 40.7057 53.9304 40.6958 53.9972 40.6958C56.5815 40.6958 59.1659 40.6958 61.7502 40.6958C61.817 40.6958 61.8838 40.7057 61.9506 40.71C61.9649 40.7144 61.9758 40.7221 61.9835 40.7341H53.7628L53.7617 40.7352Z" fill="#767676"/>
<path d="M15.0303 40.7356C15.0478 40.7279 15.0642 40.7181 15.0796 40.706C15.1277 40.7027 15.1748 40.6973 15.223 40.6973C17.1262 40.6973 19.0295 40.6973 20.9327 40.6973C20.9995 40.6973 21.0663 40.706 21.1331 40.7104C21.144 40.7203 21.1561 40.7279 21.1681 40.7356H15.0314H15.0303Z" fill="#767676"/>
<path d="M21.1308 40.7103C21.064 40.7059 20.9972 40.6971 20.9304 40.6971C19.0272 40.6971 17.124 40.6971 15.2207 40.6971C15.1726 40.6971 15.1255 40.7037 15.0773 40.7059C14.924 40.5679 14.8397 40.3806 14.7323 40.212C11.9783 35.8723 9.22746 31.5325 6.47446 27.1928C6.43066 27.1238 6.40657 27.034 6.29487 26.9946C6.29487 27.0997 6.29487 27.1928 6.29487 27.2848C6.29487 31.6234 6.29487 35.961 6.29487 40.2996C6.29487 40.3675 6.28721 40.4354 6.29597 40.5022C6.31787 40.6697 6.2434 40.7092 6.08352 40.7081C4.13431 40.7026 2.18619 40.7026 0.236971 40.7081C0.0683315 40.7081 -0.022559 40.6741 0.00481765 40.4869C0.0135782 40.4299 0.00591272 40.3719 0.00591272 40.3139C0.00591272 32.206 0.00591272 24.0981 0.00591272 15.9914C0.00591272 15.7497 0.128195 15.6289 0.37276 15.6289C2.30226 15.6289 4.23177 15.6322 6.16127 15.6245C6.3562 15.6245 6.46899 15.6826 6.57411 15.8479C9.26031 20.0825 11.952 24.3128 14.6436 28.543C14.7039 28.6372 14.7499 28.7434 14.8561 28.8299C14.9087 28.7171 14.8835 28.6109 14.8835 28.5101C14.8846 24.3259 14.8846 20.1428 14.8846 15.9585C14.8846 15.7388 14.9984 15.6289 15.2262 15.6289C17.1174 15.6289 19.0075 15.6289 20.8987 15.6289C21.2064 15.6289 21.1713 15.5906 21.1713 15.9092C21.1713 24.0751 21.1713 32.2399 21.1713 40.4058C21.1713 40.5088 21.2042 40.6194 21.1286 40.7125L21.1308 40.7103Z" fill="white"/>
<path d="M22.5876 28.1518C22.5876 24.1121 22.5876 20.0724 22.5876 16.0316C22.5876 15.9638 22.5952 15.8959 22.5865 15.8291C22.5624 15.6615 22.6368 15.621 22.7956 15.6221C23.5578 15.6287 24.32 15.6254 25.0821 15.6254C29.3759 15.6254 33.6696 15.6254 37.9634 15.6254C38.1839 15.6254 38.2941 15.7396 38.2941 15.9681C38.2941 17.7805 38.2941 19.5939 38.2941 21.4062C38.2941 21.7501 38.3379 21.726 37.9634 21.726C35.0691 21.726 32.1738 21.726 29.2795 21.726C29.2116 21.726 29.1437 21.7304 29.0769 21.726C28.9357 21.715 28.8721 21.7566 28.8732 21.9176C28.8798 22.901 28.8787 23.8844 28.8732 24.8677C28.8732 25.0057 28.917 25.0626 29.055 25.0484C29.1218 25.0418 29.1897 25.0473 29.2576 25.0473C32.1333 25.0473 35.0078 25.0473 37.8834 25.0473C37.9316 25.0473 37.9798 25.0473 38.028 25.0473C38.2908 25.0495 38.293 25.0495 38.293 25.3134C38.293 27.1652 38.293 29.0158 38.293 30.8676C38.293 31.1403 38.2919 31.1403 38.0072 31.1403C35.0834 31.1403 32.1606 31.1403 29.2368 31.1403C28.8196 31.1403 28.8787 31.0833 28.8765 31.5137C28.8732 32.439 28.8743 33.3654 28.8765 34.2908C28.8765 34.6434 28.8305 34.6007 29.1799 34.6007C32.0938 34.6018 35.0078 34.6007 37.9218 34.6007C38.17 34.6007 38.2941 34.72 38.2941 34.9588C38.2941 36.7612 38.2941 38.5648 38.2941 40.3673C38.2941 40.7199 38.3456 40.7002 37.9765 40.7002C32.9589 40.7002 27.9424 40.7002 22.9248 40.7002C22.857 40.7002 22.7902 40.6969 22.7223 40.7002C22.6215 40.7035 22.5865 40.652 22.5898 40.5589C22.593 40.4823 22.5898 40.4045 22.5898 40.3279C22.5898 36.2684 22.5898 32.209 22.5898 28.1507L22.5876 28.1518Z" fill="white"/>
<path d="M69.2876 31.2189V22.1364C69.2876 22.0882 69.2876 22.0401 69.2876 21.9919C69.2855 21.7291 69.2854 21.728 69.0193 21.728C67.1764 21.728 65.3334 21.728 63.4904 21.728C63.2509 21.728 63.1312 21.6133 63.1312 21.3841C63.1312 19.5718 63.1312 17.7584 63.1312 15.946C63.1312 15.8781 63.1345 15.8113 63.1312 15.7434C63.1268 15.6558 63.1673 15.623 63.2505 15.6274C63.3184 15.6306 63.3852 15.6274 63.4531 15.6274C69.4541 15.6274 75.4561 15.6274 81.4571 15.6274C81.525 15.6274 81.5929 15.6317 81.6597 15.6274C81.7593 15.6197 81.801 15.6613 81.7922 15.761C81.7878 15.8179 81.7922 15.877 81.7922 15.934C81.7922 17.7562 81.7922 19.5783 81.7922 21.4005C81.7922 21.4586 81.7889 21.5166 81.7922 21.5736C81.7999 21.6798 81.7648 21.7378 81.6476 21.728C81.5808 21.7225 81.5129 21.728 81.4451 21.728C79.6119 21.728 77.7788 21.728 75.9456 21.728C75.8876 21.728 75.8296 21.7334 75.7726 21.728C75.6412 21.7137 75.5678 21.7521 75.5875 21.901C75.5963 21.9678 75.5886 22.0357 75.5886 22.1036V40.297C75.5886 40.355 75.5886 40.4131 75.5886 40.47C75.5865 40.6956 75.6324 40.7054 75.3554 40.7054C73.4259 40.7054 71.4964 40.7054 69.5658 40.7054C69.2887 40.7054 69.2876 40.7033 69.2876 40.4185C69.2876 37.3524 69.2876 34.2862 69.2876 31.22V31.2189Z" fill="white"/>
<path d="M38.9863 15.6264H39.2568C41.4568 15.6264 43.6568 15.6286 45.8557 15.6221C46.0539 15.6221 46.1634 15.6834 46.2696 15.8509C48.8014 19.8556 51.3365 23.8592 53.8825 27.855C54.0292 28.085 54.0281 28.235 53.8847 28.4617C51.3595 32.4478 48.8419 36.4393 46.3287 40.433C46.2083 40.6246 46.0845 40.7056 45.8491 40.7045C43.6688 40.6947 41.4886 40.6991 39.3072 40.6969C39.213 40.6969 39.1155 40.7199 39.0236 40.6717C39.029 40.5677 39.1013 40.4965 39.1506 40.4165C41.5893 36.4217 44.0269 32.428 46.4711 28.4376C46.5894 28.2438 46.608 28.1047 46.481 27.8978C44.0291 23.9008 41.586 19.8972 39.1418 15.8958C39.0969 15.8225 39.0564 15.748 38.9874 15.6264H38.9863Z" fill="#767676"/>
<path d="M32.1289 1.56629C31.8726 2.93622 31.6164 4.30614 31.3612 5.67607C31.0207 7.50154 30.6823 9.32702 30.3417 11.1525C30.2946 11.4076 30.2377 11.6628 30.2038 11.9201C30.1851 12.0581 30.1238 12.0921 29.9957 12.0921C29.1174 12.0888 28.2392 12.0822 27.3621 12.0964C27.1814 12.0997 27.1814 11.9946 27.1606 11.8862C27.0324 11.2149 26.9087 10.5425 26.7839 9.87126C26.486 8.26261 26.1881 6.65506 25.8903 5.04641C25.6778 3.90316 25.4643 2.76101 25.2475 1.59805C25.1949 1.76559 25.1884 1.91781 25.1873 2.07221C25.1763 4.56896 25.1752 7.06571 25.1445 9.56246C25.1347 10.3421 25.1533 11.1229 25.1172 11.9026C25.1095 12.057 25.0602 12.0942 24.9146 12.0932C24.0845 12.0877 23.2545 12.0855 22.4255 12.0942C22.2503 12.0964 22.1912 12.0526 22.1966 11.8709C22.2196 11.0912 22.2284 10.3104 22.2437 9.5296C22.2547 8.98098 22.2667 8.43125 22.2777 7.88263C22.316 5.99473 22.3543 4.10794 22.3948 2.22004C22.4069 1.68127 22.4299 1.1425 22.4397 0.602632C22.4419 0.467939 22.4551 0.397855 22.6226 0.39895C24.0988 0.40552 25.5749 0.404425 27.0511 0.40114C27.177 0.40114 27.2317 0.429611 27.2536 0.570875C27.5187 2.26275 27.7924 3.95463 28.0662 5.64541C28.2644 6.87079 28.4648 8.09507 28.6674 9.34016C28.7856 9.15947 28.7692 8.95907 28.7999 8.7751C29.112 6.88612 29.4164 4.99494 29.7219 3.10376C29.8566 2.26823 29.9957 1.43269 30.1216 0.594966C30.1457 0.433992 30.207 0.397855 30.3592 0.39895C31.8157 0.404425 33.2732 0.404425 34.7308 0.39895C34.895 0.39895 34.9399 0.446037 34.9421 0.610297C34.9607 1.94956 34.987 3.28773 35.0155 4.627C35.0571 6.57183 35.0976 8.51776 35.1513 10.4626C35.1644 10.9444 35.1666 11.4263 35.1863 11.907C35.1918 12.0439 35.1589 12.0932 35.0144 12.0921C34.1558 12.0866 33.2973 12.0855 32.4377 12.0921C32.2603 12.0932 32.234 12.0165 32.234 11.8654C32.2362 11.2007 32.2296 10.5349 32.2274 9.87017C32.2241 8.70392 32.2252 7.53659 32.2165 6.37034C32.2044 4.81863 32.1847 3.26693 32.1683 1.71631C32.1683 1.66813 32.1617 1.61995 32.1573 1.57286C32.1486 1.57067 32.1387 1.56957 32.13 1.56738L32.1289 1.56629Z" fill="white"/>
<path d="M67.5894 9.53726C67.5894 8.85066 67.5959 8.17719 67.5872 7.50482C67.574 6.54226 67.5478 5.5786 67.5313 4.61604C67.5083 3.27677 67.4941 1.93751 67.4656 0.59934C67.4623 0.447126 67.4875 0.398943 67.6452 0.400038C68.4939 0.406608 69.3437 0.405513 70.1923 0.400038C70.3347 0.400038 70.3851 0.449316 70.3687 0.585104C70.3621 0.642047 70.3676 0.701181 70.3676 0.758124V11.5763C70.3676 11.6146 70.3676 11.6529 70.3676 11.6924C70.3654 11.9475 70.3654 11.9497 70.1201 11.9508C69.7346 11.953 69.348 11.9508 68.9626 11.9508C68.1227 11.9508 67.2838 11.942 66.4439 11.9563C66.2392 11.9595 66.1603 11.8917 66.1045 11.7055C65.1967 8.70611 64.2834 5.70782 63.3712 2.70953C63.3471 2.63069 63.3208 2.55184 63.2661 2.48066C63.2661 2.94935 63.2595 3.41804 63.2671 3.88563C63.2825 4.84929 63.3066 5.81185 63.323 6.77441C63.3493 8.32503 63.3734 9.87564 63.3975 11.4263C63.3997 11.5872 63.496 11.7865 63.3865 11.9004C63.2682 12.0242 63.058 11.9453 62.8883 11.9464C62.2027 11.9519 61.5183 11.9497 60.8328 11.9486C60.4901 11.9486 60.5361 11.9836 60.5361 11.6628C60.5339 10.5053 60.5361 9.34891 60.5361 8.19143V0.759219C60.5361 0.701181 60.5437 0.642047 60.535 0.586199C60.5087 0.420844 60.5952 0.397848 60.7343 0.401133C61.0431 0.408798 61.3519 0.403323 61.6607 0.403323C62.655 0.403323 63.6482 0.407703 64.6426 0.398943C64.8265 0.397848 64.9032 0.449316 64.9568 0.634382C65.7924 3.5144 66.6389 6.39224 67.4831 9.27007C67.5094 9.35877 67.516 9.45513 67.5916 9.53726H67.5894Z" fill="white"/>
<path d="M49.1042 5.0747C49.1042 3.60951 49.1042 2.14431 49.1042 0.680206C49.1042 0.371397 49.0801 0.403154 49.3845 0.403154C50.185 0.402059 50.9855 0.403154 51.786 0.403154C52.12 0.403154 52.0718 0.390013 52.0718 0.705392C52.0718 3.50985 52.0718 6.31432 52.0718 9.11878C52.0718 9.26333 52.0663 9.40678 52.1079 9.54914C52.2656 10.0901 52.7234 10.365 53.3738 10.3069C53.9038 10.2598 54.2915 9.86452 54.3342 9.32355C54.3419 9.22719 54.3386 9.13082 54.3386 9.03446C54.3386 6.27818 54.3386 3.5219 54.3386 0.765621C54.3386 0.707582 54.3452 0.648449 54.3375 0.5926C54.3156 0.438196 54.3813 0.398774 54.5302 0.400964C55.2245 0.407534 55.9188 0.404249 56.613 0.404249C56.7872 0.404249 56.9602 0.409725 57.1343 0.402059C57.2547 0.396584 57.3183 0.430531 57.3018 0.561939C57.2964 0.609026 57.3018 0.658304 57.3018 0.706487C57.3018 3.50109 57.3018 6.29679 57.3018 9.0914C57.3018 9.53819 57.2493 9.97621 57.1014 10.3978C56.785 11.3023 56.1246 11.8543 55.2376 12.1488C54.4317 12.416 53.5961 12.4686 52.7551 12.4259C52.1671 12.3952 51.5867 12.312 51.0304 12.1028C49.8543 11.6593 49.217 10.7975 49.1305 9.5568C49.0516 8.42232 49.114 7.28345 49.102 6.14677C49.0987 5.78978 49.102 5.43388 49.102 5.07689L49.1042 5.0747Z" fill="white"/>
<path d="M76.3401 6.24776C76.3401 7.17309 76.3412 8.09842 76.3401 9.02375C76.3401 9.47163 76.4891 9.84066 76.903 10.0542C77.2228 10.2196 77.5699 10.2371 77.917 10.1571C78.4591 10.0312 78.7613 9.66327 78.7701 9.10697C78.7799 8.53863 78.7679 7.9692 78.7756 7.40086C78.7777 7.2585 78.7318 7.21908 78.5949 7.22455C78.3255 7.23441 78.0539 7.21579 77.7845 7.23112C77.5973 7.24208 77.5579 7.1698 77.5622 6.99897C77.5732 6.57518 77.5754 6.1503 77.5622 5.72651C77.5557 5.53706 77.629 5.5064 77.7966 5.50749C79.0318 5.51406 80.2659 5.51078 81.5012 5.51078C81.5209 5.51078 81.5395 5.51297 81.5592 5.51078C81.6819 5.49435 81.7432 5.54144 81.7257 5.67066C81.7246 5.68051 81.7257 5.69037 81.7257 5.69913C81.7224 6.79748 81.7257 7.89692 81.7114 8.99527C81.707 9.33037 81.6709 9.66764 81.5822 9.99507C81.3293 10.9292 80.7313 11.572 79.8432 11.9049C78.3364 12.4699 76.8023 12.4787 75.2987 11.9049C74.1336 11.4603 73.5412 10.559 73.4426 9.31722C73.3824 8.55615 73.4043 7.79618 73.3999 7.03511C73.3944 5.98385 73.3933 4.93368 73.401 3.88242C73.4043 3.44987 73.436 3.01512 73.5269 2.59133C73.7667 1.47875 74.4413 0.733009 75.5134 0.388063C76.9293 -0.0685792 78.3649 -0.0674842 79.7699 0.431866C81.004 0.870987 81.6523 1.86421 81.6928 3.24071C81.6994 3.47177 81.6884 3.70392 81.6961 3.93498C81.6994 4.06201 81.6764 4.12552 81.5253 4.12443C80.6569 4.11786 79.7885 4.11786 78.9212 4.12443C78.7734 4.12552 78.7438 4.06858 78.746 3.93826C78.7526 3.66888 78.758 3.3984 78.7208 3.13011C78.6606 2.6866 78.4262 2.38765 77.9948 2.25186C77.721 2.16535 77.4418 2.16535 77.1669 2.23434C76.6719 2.35918 76.3949 2.71727 76.3533 3.29765C76.3325 3.58565 76.3434 3.87585 76.3423 4.16494C76.3412 4.85921 76.3423 5.55349 76.3423 6.24666L76.3401 6.24776Z" fill="white"/>
<path d="M1.60738 8.2312C2.06074 8.2312 2.5141 8.23668 2.96745 8.22792C3.11638 8.22463 3.17004 8.26625 3.16457 8.42065C3.15362 8.72836 3.16019 9.03717 3.16128 9.34598C3.16457 9.92855 3.48542 10.3118 4.05814 10.406C4.24868 10.4378 4.4436 10.4356 4.63414 10.4005C5.24628 10.2866 5.51677 9.84533 5.49815 9.13025C5.4872 8.74698 5.27366 8.46555 5.00537 8.21587C4.68561 7.91911 4.31548 7.69243 3.93987 7.4767C3.23136 7.06934 2.49658 6.70687 1.81545 6.25133C1.53511 6.06297 1.26572 5.85929 1.02152 5.62604C0.55174 5.17488 0.218841 4.64815 0.12795 3.98564C0.0392498 3.34502 0.0688166 2.71536 0.271404 2.10212C0.585687 1.15489 1.28215 0.588744 2.2031 0.308407C3.52375 -0.0934821 4.86411 -0.103338 6.19023 0.28322C7.49117 0.663208 8.14492 1.54364 8.18763 2.89276C8.19529 3.12382 8.17887 3.35597 8.19201 3.58703C8.20187 3.75786 8.13069 3.79619 7.97409 3.79509C7.23164 3.78852 6.48918 3.79181 5.74563 3.79181C5.4193 3.79181 5.25578 3.6323 5.25505 3.31327C5.25505 3.18843 5.25505 3.0625 5.24409 2.93766C5.21015 2.49744 4.95609 2.17111 4.52683 2.06489C3.9344 1.91925 3.30035 2.07694 3.13281 2.73507C3.01892 3.18295 3.09667 3.59579 3.45914 3.92322C3.71757 4.15756 4.00558 4.3492 4.31 4.51784C4.97471 4.88578 5.64598 5.24168 6.30631 5.61728C6.74981 5.87024 7.16265 6.1681 7.53607 6.5229C8.10112 7.05839 8.42088 7.69572 8.44497 8.48307C8.46249 9.04265 8.4603 9.59894 8.33656 10.1487C8.12521 11.0828 7.55249 11.7146 6.69177 12.1001C6.0862 12.3716 5.44449 12.4833 4.78636 12.5217C3.9344 12.5709 3.0912 12.526 2.27209 12.2687C0.813461 11.8121 0.0567709 10.8079 0.0107781 9.28028C0.0020176 9.00103 0.0173485 8.7207 0.00639786 8.44146C-0.000172527 8.27939 0.0523906 8.22354 0.218841 8.22682C0.682053 8.23668 1.14527 8.23011 1.60738 8.23011V8.2312Z" fill="white"/>
<path d="M15.1164 1.49096C14.8208 3.43689 14.5262 5.36749 14.2349 7.29919C14.0137 8.76439 13.7969 10.2296 13.5779 11.6948C13.5735 11.7233 13.5691 11.7517 13.5647 11.7802C13.5297 11.9846 13.4052 12.0868 13.1913 12.0868C12.3426 12.0868 11.494 12.0868 10.6453 12.0857C10.5511 12.0857 10.4536 12.1076 10.3496 12.0562C10.5489 10.9808 10.7504 9.90435 10.9497 8.8268C11.2684 7.10536 11.587 5.38501 11.9057 3.66357C12.0951 2.64297 12.2901 1.62237 12.4718 0.599578C12.4992 0.442984 12.5518 0.395896 12.7084 0.396991C14.3094 0.402467 15.9104 0.402467 17.5113 0.396991C17.6844 0.396991 17.7314 0.451744 17.7621 0.619289C18.3283 3.71285 18.9032 6.80531 19.477 9.89668C19.5963 10.5395 19.7157 11.1823 19.8318 11.8262C19.8778 12.0813 19.8745 12.0846 19.6193 12.0857C18.7323 12.0868 17.8442 12.0813 16.9572 12.0901C16.7776 12.0923 16.7185 12.0452 16.6922 11.8568C16.494 10.4376 16.2794 9.01954 16.0691 7.60143C15.8665 6.2304 15.6618 4.86048 15.4592 3.48946C15.3716 2.89922 15.2873 2.30898 15.2007 1.71873C15.1898 1.64646 15.2095 1.56214 15.1164 1.48877V1.49096Z" fill="white"/>
<path d="M39.6019 8.22158C40.0553 8.22158 40.5087 8.22596 40.962 8.2183C41.0967 8.21611 41.1493 8.24786 41.1438 8.39241C41.1328 8.70013 41.1372 9.00893 41.1416 9.31774C41.1482 9.94193 41.5435 10.346 42.1666 10.3712C42.1863 10.3712 42.2049 10.3712 42.2246 10.3712C42.7043 10.3876 43.1456 10.3033 43.3471 9.79957C43.5595 9.26956 43.5234 8.76364 43.1083 8.32561C42.8072 8.00695 42.4458 7.76822 42.0691 7.5514C41.4438 7.19113 40.812 6.84289 40.1867 6.48371C39.8779 6.30631 39.5899 6.09496 39.3085 5.87595C38.3875 5.15759 38.0108 4.21474 38.1126 3.06054C38.1674 2.44511 38.313 1.86801 38.6985 1.36976C39.177 0.752142 39.8363 0.424717 40.5744 0.263743C41.7088 0.0162581 42.8488 0.0162581 43.9822 0.292214C44.1881 0.342588 44.3863 0.417052 44.579 0.503562C45.5821 0.953634 46.0519 1.75522 46.1077 2.8262C46.122 3.10544 46.1044 3.38577 46.1121 3.66502C46.1165 3.79423 46.0672 3.82818 45.9446 3.82818C45.086 3.82489 44.2275 3.8238 43.369 3.82818C43.2343 3.82818 43.208 3.77452 43.2124 3.65735C43.2189 3.46462 43.2178 3.27189 43.2135 3.07916C43.2003 2.45059 42.7722 2.0487 42.1326 2.05746C41.4734 2.06732 41.0923 2.45387 41.077 3.09777C41.0682 3.45586 41.2062 3.73072 41.4603 3.96287C41.7899 4.26511 42.1753 4.48303 42.5641 4.69657C43.1543 5.02071 43.7588 5.31856 44.3326 5.67117C44.8769 6.00517 45.3915 6.3753 45.7967 6.87794C46.1274 7.2864 46.3015 7.75289 46.3585 8.27524C46.4187 8.82606 46.3913 9.37031 46.307 9.91346C46.1504 10.9187 45.5799 11.6108 44.6677 12.0302C44.0468 12.316 43.3854 12.431 42.7064 12.4606C41.8742 12.4967 41.0485 12.465 40.248 12.2076C39.2132 11.8747 38.4576 11.2505 38.1543 10.1653C37.9878 9.5718 38.0261 8.96294 38.0196 8.35737C38.0174 8.19968 38.1159 8.22158 38.2112 8.22158C38.6744 8.22158 39.1365 8.22158 39.5997 8.22158H39.6019Z" fill="white"/>
<path d="M53.7275 15.6323H62.027C60.6166 17.8564 59.2259 20.0498 57.8078 22.2859C56.4411 20.0564 55.0975 17.8652 53.7286 15.6323H53.7275Z" fill="white"/>
<path d="M61.9515 40.7115C61.8847 40.706 61.8179 40.6972 61.7511 40.6972C59.1667 40.6972 56.5824 40.6972 53.998 40.6972C53.9312 40.6972 53.8644 40.706 53.7976 40.7115C53.7264 40.5625 53.8611 40.4826 53.9192 40.3873C54.8554 38.8498 55.7972 37.3168 56.7379 35.7826C57.085 35.2164 57.4321 34.6514 57.7782 34.0874C57.8833 34.0962 57.8997 34.1849 57.938 34.2451C59.2543 36.317 60.5684 38.3899 61.8803 40.4651C61.9252 40.5351 62.0413 40.5976 61.9515 40.7125V40.7115Z" fill="white"/>
</svg>
