<svg width="158" height="40" viewBox="0 0 158 40" fill="none" xmlns="http://www.w3.org/2000/svg">
<path d="M47.0227 20.5611V5.72472C47.0213 5.69134 47.0268 5.65802 47.039 5.62689C47.0511 5.59576 47.0696 5.56749 47.0932 5.54387C47.1168 5.52024 47.1451 5.50178 47.1762 5.48964C47.2073 5.4775 47.2407 5.47196 47.274 5.47336H48.7411C48.7745 5.47199 48.8078 5.47756 48.8389 5.48971C48.87 5.50187 48.8982 5.52033 48.9218 5.54396C48.9454 5.56758 48.9639 5.59584 48.976 5.62695C48.9881 5.65806 48.9937 5.69136 48.9923 5.72472V18.989H55.2369C55.2703 18.9876 55.3036 18.9932 55.3347 19.0053C55.3659 19.0175 55.3942 19.0359 55.4178 19.0596C55.4414 19.0833 55.4599 19.1116 55.472 19.1427C55.4841 19.1739 55.4897 19.2072 55.4882 19.2406V20.5611C55.4897 20.5945 55.4841 20.6279 55.472 20.659C55.4599 20.6902 55.4414 20.7185 55.4178 20.7422C55.3942 20.7658 55.3659 20.7843 55.3347 20.7964C55.3036 20.8086 55.2703 20.8142 55.2369 20.8127H47.274C47.2406 20.8142 47.2073 20.8086 47.1762 20.7964C47.145 20.7843 47.1167 20.7658 47.0931 20.7422C47.0695 20.7185 47.051 20.6902 47.0389 20.659C47.0268 20.6279 47.0212 20.5945 47.0227 20.5611Z" fill="white"/>
<path d="M64.0177 20.5624V19.0748C63.6635 19.6856 63.1521 20.1905 62.5367 20.5368C61.9214 20.8832 61.2245 21.0584 60.5185 21.0444C58.4229 21.0444 57.04 19.6823 57.04 17.6287C57.04 15.4915 58.6117 14.1712 61.9013 14.1712H63.9549V12.7254C63.9549 11.3215 63.2006 10.651 61.6712 10.651C60.3302 10.651 59.6594 11.1747 59.3032 12.2014C59.2982 12.2335 59.2861 12.2641 59.2677 12.2909C59.2493 12.3177 59.2251 12.3401 59.1969 12.3563C59.1688 12.3725 59.1373 12.3822 59.1049 12.3847C59.0725 12.3871 59.0399 12.3822 59.0096 12.3704L57.6896 12.0141C57.6567 12.0097 57.6251 11.9983 57.5971 11.9805C57.569 11.9627 57.5452 11.939 57.5273 11.9111C57.5094 11.8832 57.4977 11.8516 57.4932 11.8188C57.4887 11.7859 57.4915 11.7524 57.5012 11.7207C57.9412 10.149 59.3032 9.08057 61.7127 9.08057C64.2903 9.08057 65.82 10.2538 65.82 12.6846V20.5624C65.8214 20.5958 65.8159 20.6292 65.8037 20.6604C65.7916 20.6915 65.7731 20.7199 65.7495 20.7435C65.7258 20.7672 65.6975 20.7857 65.6663 20.7978C65.6351 20.8099 65.6018 20.8155 65.5684 20.814H64.2695C64.2361 20.8155 64.2027 20.81 64.1715 20.7979C64.1403 20.7857 64.112 20.7673 64.0883 20.7436C64.0646 20.7199 64.0461 20.6916 64.034 20.6604C64.0218 20.6292 64.0163 20.5959 64.0177 20.5624ZM61.0212 19.4727C62.3833 19.4727 63.41 18.6348 63.9549 17.3146V15.4703H61.9013C59.9317 15.4703 58.8628 16.1621 58.8628 17.5227C58.8621 18.6759 59.6384 19.4722 61.0212 19.4722V19.4727Z" fill="white"/>
<path d="M67.747 18.319C67.7259 18.2578 67.7294 18.1909 67.7568 18.1323C67.7842 18.0737 67.8334 18.0281 67.8938 18.0051L68.9835 17.5222C69.0147 17.5058 69.0494 17.4973 69.0846 17.4975C69.1198 17.4976 69.1545 17.5065 69.1855 17.5232C69.2165 17.5399 69.2429 17.5639 69.2624 17.5932C69.2819 17.6225 69.294 17.6562 69.2974 17.6912C69.6323 18.8437 70.7013 19.5142 72.1264 19.5142C73.5717 19.5142 74.5356 18.8017 74.5356 17.754C74.5356 16.6853 73.9078 16.3294 71.4346 15.6166C69.2559 14.9663 68.0609 14.2113 68.0609 12.305C68.0609 10.3352 69.7376 9.07812 72.1053 9.07812C74.222 9.07812 75.7726 10.063 76.2543 11.7395C76.2663 11.7711 76.2713 11.8049 76.2691 11.8386C76.2668 11.8724 76.2574 11.9052 76.2414 11.935C76.2254 11.9647 76.2031 11.9907 76.1762 12.0111C76.1493 12.0315 76.1183 12.046 76.0853 12.0534L74.9746 12.4513C74.9436 12.4678 74.909 12.4764 74.8738 12.4764C74.8387 12.4764 74.8041 12.4677 74.7731 12.4512C74.7421 12.4346 74.7157 12.4107 74.696 12.3816C74.6764 12.3524 74.6643 12.3189 74.6607 12.284C74.3043 11.1733 73.508 10.6283 72.1459 10.6283C70.7421 10.6283 69.904 11.236 69.904 12.1999C69.904 13.2689 70.6375 13.5623 72.7327 14.1698C75.268 14.9033 76.3787 15.8042 76.3787 17.6692C76.3787 19.6808 74.681 21.0429 72.1249 21.0429C69.8636 21.0431 68.2299 20.0375 67.747 18.319Z" fill="white"/>
<path d="M78.2031 16.538V13.6253C78.2031 10.7543 79.8586 9.07812 82.7083 9.07812C85.537 9.07812 87.2136 10.7543 87.2136 13.6253V15.4275C87.215 15.4609 87.2095 15.4943 87.1973 15.5254C87.1852 15.5566 87.1667 15.5848 87.1431 15.6085C87.1194 15.6321 87.0911 15.6506 87.0599 15.6627C87.0288 15.6748 86.9954 15.6803 86.962 15.6789H80.0259V16.538C80.0259 18.3818 81.0948 19.4297 82.8751 19.4297C84.1534 19.4297 85.0125 18.9057 85.4319 17.8791C85.4947 17.7325 85.5995 17.6695 85.7458 17.7325L86.9403 18.1304C87.1074 18.1932 87.1497 18.2772 87.1074 18.4238C86.5209 20.1212 85.0753 21.0431 82.8746 21.0431C80.0054 21.0431 78.2031 19.3877 78.2031 16.538ZM85.4537 14.3376V13.5205C85.4537 11.7395 84.4893 10.6713 82.7493 10.6713C80.9888 10.6713 80.0249 11.7402 80.0249 13.5205V14.3376H85.4537Z" fill="white"/>
<path d="M89.7092 20.5619V9.56005C89.7078 9.52669 89.7133 9.4934 89.7255 9.46229C89.7376 9.43117 89.756 9.40291 89.7796 9.37929C89.8032 9.35567 89.8315 9.3372 89.8626 9.32505C89.8937 9.3129 89.927 9.30733 89.9603 9.30869H91.3016C91.335 9.30726 91.3684 9.31277 91.3995 9.3249C91.4307 9.33702 91.459 9.35548 91.4826 9.37911C91.5063 9.40274 91.5248 9.43102 91.5369 9.46217C91.5491 9.49331 91.5546 9.52664 91.5532 9.56005V11.2157C91.8989 10.5729 92.4179 10.0398 93.0513 9.67702C93.6847 9.31424 94.4071 9.13627 95.1365 9.16333C95.1703 9.16021 95.2043 9.16457 95.2363 9.1761C95.2682 9.18763 95.2972 9.20604 95.3212 9.23003C95.3452 9.25402 95.3636 9.283 95.3752 9.31491C95.3868 9.34682 95.3912 9.38089 95.3881 9.41469V10.7345C95.3912 10.7683 95.3868 10.8024 95.3752 10.8343C95.3636 10.8662 95.3452 10.8952 95.3212 10.9192C95.2972 10.9432 95.2682 10.9616 95.2363 10.9731C95.2043 10.9846 95.1703 10.989 95.1365 10.9859C93.3555 10.9859 92.2028 11.6984 91.5955 13.1022V20.5619C91.5969 20.5953 91.5914 20.6287 91.5792 20.6599C91.5671 20.6911 91.5486 20.7194 91.5249 20.7431C91.5012 20.7667 91.4729 20.7852 91.4417 20.7973C91.4105 20.8094 91.3771 20.8149 91.3436 20.8135H89.9603C89.9269 20.8148 89.8936 20.8093 89.8625 20.7971C89.8314 20.7849 89.8031 20.7664 89.7795 20.7428C89.7559 20.7191 89.7375 20.6909 89.7254 20.6597C89.7133 20.6286 89.7078 20.5953 89.7092 20.5619Z" fill="white"/>
<path d="M102.586 20.5612V5.72474C102.585 5.69131 102.59 5.65796 102.602 5.62679C102.615 5.59563 102.633 5.56734 102.657 5.5437C102.68 5.52007 102.709 5.50161 102.74 5.48951C102.771 5.4774 102.805 5.47191 102.838 5.47338H107.532C111.052 5.47338 113.085 7.52699 113.085 10.8379V15.4058C113.085 18.7587 111.052 20.8123 107.532 20.8123H102.838C102.805 20.8137 102.771 20.8083 102.74 20.7962C102.709 20.7841 102.681 20.7656 102.657 20.742C102.633 20.7184 102.615 20.6902 102.603 20.659C102.59 20.6279 102.585 20.5946 102.586 20.5612ZM107.553 18.9895C109.816 18.9895 111.115 17.816 111.115 15.4063V10.8787C111.115 8.46868 109.816 7.29542 107.553 7.29542H104.556V18.9881L107.553 18.9895Z" fill="white"/>
<path d="M115.914 7.27617V5.15978C115.913 5.12638 115.918 5.09305 115.931 5.0619C115.943 5.03075 115.961 5.00247 115.985 4.97884C116.009 4.95521 116.037 4.93675 116.068 4.92463C116.099 4.91251 116.132 4.90699 116.166 4.90843H117.549C117.582 4.90699 117.615 4.91251 117.647 4.92463C117.678 4.93675 117.706 4.95521 117.73 4.97884C117.753 5.00247 117.772 5.03075 117.784 5.0619C117.796 5.09305 117.802 5.12638 117.8 5.15978V7.27617C117.802 7.30959 117.796 7.34295 117.784 7.37412C117.772 7.4053 117.753 7.43361 117.73 7.45727C117.706 7.48093 117.678 7.49941 117.647 7.51154C117.615 7.52368 117.582 7.5292 117.549 7.52777H116.166C116.132 7.5292 116.099 7.52368 116.068 7.51154C116.037 7.49941 116.008 7.48093 115.985 7.45727C115.961 7.43361 115.943 7.4053 115.931 7.37412C115.918 7.34295 115.913 7.30959 115.914 7.27617ZM115.914 20.5615V9.56012C115.913 9.52672 115.918 9.49339 115.931 9.46224C115.943 9.4311 115.961 9.40281 115.985 9.37918C116.009 9.35555 116.037 9.33709 116.068 9.32497C116.099 9.31285 116.132 9.30733 116.166 9.30877H117.549C117.582 9.30733 117.615 9.31285 117.647 9.32497C117.678 9.33709 117.706 9.35555 117.73 9.37918C117.753 9.40281 117.772 9.4311 117.784 9.46224C117.796 9.49339 117.802 9.52672 117.8 9.56012V20.5619C117.802 20.5954 117.796 20.6287 117.784 20.6599C117.772 20.6911 117.753 20.7194 117.73 20.743C117.706 20.7667 117.678 20.7852 117.647 20.7973C117.615 20.8095 117.582 20.815 117.549 20.8136H116.166C116.132 20.815 116.099 20.8095 116.068 20.7973C116.037 20.7852 116.008 20.7667 115.985 20.743C115.961 20.7194 115.943 20.6911 115.931 20.6599C115.918 20.6287 115.913 20.5954 115.914 20.5619V20.5615Z" fill="white"/>
<path d="M120.211 22.1549C120.196 21.6056 120.354 21.0656 120.662 20.6107C120.97 20.1559 121.413 19.8092 121.929 19.6196C121.691 19.449 121.496 19.2261 121.358 18.9682C121.22 18.7103 121.143 18.4241 121.132 18.1317C121.132 17.4612 121.552 16.8534 122.306 16.5381C121.153 15.8675 120.546 14.715 120.546 13.2059C120.546 10.9217 121.992 9.30831 124.842 9.30831H129.829C129.863 9.30694 129.896 9.31251 129.927 9.32467C129.958 9.33682 129.986 9.35529 130.01 9.37891C130.033 9.40253 130.052 9.43079 130.064 9.4619C130.076 9.49301 130.082 9.5263 130.08 9.55966V10.5866C130.082 10.62 130.076 10.6533 130.064 10.6844C130.052 10.7156 130.034 10.7439 130.01 10.7675C129.986 10.7912 129.958 10.8096 129.927 10.8218C129.896 10.834 129.863 10.8396 129.829 10.8382H127.796C128.488 11.3409 129.012 12.242 129.012 13.5203C129.012 15.6367 127.566 17.1453 124.863 17.1453H123.899C123.102 17.1453 122.767 17.5017 122.767 17.9421C122.767 18.3826 123.124 18.739 123.899 18.739H126.287C129.075 18.739 130.143 20.08 130.143 21.7572C130.143 23.6647 128.739 25.2146 124.989 25.2146C121.531 25.2142 120.211 23.8731 120.211 22.1549ZM125.072 23.8521C127.335 23.8521 128.32 23.0348 128.32 21.8823C128.32 21.0652 127.859 20.2691 126.162 20.2691H124.045C122.453 20.2691 121.971 21.0862 121.971 21.9243C121.971 23.0768 122.873 23.8521 125.072 23.8521ZM124.842 15.7427C126.372 15.7427 127.335 14.9459 127.335 13.2909C127.335 11.782 126.518 10.7974 124.821 10.7974C123.207 10.7974 122.286 11.6773 122.286 13.2281C122.286 14.779 123.187 15.7427 124.842 15.7427Z" fill="white"/>
<path d="M132.214 7.27617V5.15978C132.213 5.12642 132.218 5.09313 132.23 5.06202C132.242 5.03091 132.261 5.00265 132.285 4.97903C132.308 4.9554 132.336 4.93694 132.367 4.92478C132.399 4.91263 132.432 4.90706 132.465 4.90843H133.849C133.882 4.90699 133.915 4.91251 133.946 4.92463C133.978 4.93675 134.006 4.95521 134.03 4.97884C134.053 5.00247 134.072 5.03075 134.084 5.0619C134.096 5.09305 134.102 5.12638 134.1 5.15978V7.27617C134.102 7.30959 134.096 7.34295 134.084 7.37412C134.072 7.4053 134.053 7.43361 134.03 7.45727C134.006 7.48093 133.978 7.49941 133.946 7.51154C133.915 7.52368 133.882 7.5292 133.849 7.52777H132.465C132.432 7.52913 132.399 7.52356 132.367 7.51139C132.336 7.49923 132.308 7.48074 132.284 7.45709C132.261 7.43344 132.242 7.40515 132.23 7.374C132.218 7.34286 132.213 7.30955 132.214 7.27617ZM132.214 20.5615V9.56012C132.213 9.52676 132.218 9.49347 132.23 9.46236C132.242 9.43125 132.261 9.40299 132.285 9.37937C132.308 9.35575 132.336 9.33728 132.367 9.32513C132.399 9.31297 132.432 9.3074 132.465 9.30877H133.849C133.882 9.30733 133.915 9.31285 133.946 9.32497C133.978 9.33709 134.006 9.35555 134.03 9.37918C134.053 9.40281 134.072 9.4311 134.084 9.46224C134.096 9.49339 134.102 9.52672 134.1 9.56012V20.5619C134.102 20.5954 134.096 20.6287 134.084 20.6599C134.072 20.6911 134.053 20.7194 134.03 20.743C134.006 20.7667 133.978 20.7852 133.946 20.7973C133.915 20.8095 133.882 20.815 133.849 20.8136H132.465C132.432 20.8149 132.399 20.8093 132.367 20.7972C132.336 20.785 132.308 20.7665 132.284 20.7429C132.261 20.7192 132.242 20.6909 132.23 20.6598C132.218 20.6286 132.213 20.5953 132.214 20.5619V20.5615Z" fill="white"/>
<path d="M137.938 17.879V10.8792H136.388C136.354 10.8806 136.321 10.8751 136.29 10.8629C136.258 10.8508 136.23 10.8323 136.206 10.8087C136.183 10.785 136.164 10.7567 136.152 10.7255C136.14 10.6943 136.135 10.661 136.136 10.6276V9.55886C136.135 9.52545 136.14 9.49213 136.152 9.46098C136.164 9.42983 136.183 9.40155 136.207 9.37792C136.23 9.35429 136.259 9.33583 136.29 9.32371C136.321 9.31159 136.354 9.30607 136.388 9.3075H137.938V6.60534C137.937 6.57191 137.942 6.53856 137.954 6.50738C137.967 6.47621 137.985 6.44789 138.009 6.42423C138.032 6.40058 138.061 6.3821 138.092 6.36996C138.123 6.35783 138.156 6.3523 138.19 6.35374H139.551C139.585 6.3523 139.618 6.35783 139.649 6.36996C139.681 6.3821 139.709 6.40058 139.732 6.42423C139.756 6.44789 139.775 6.47621 139.787 6.50738C139.799 6.53856 139.804 6.57191 139.803 6.60534V9.30968H142.255C142.288 9.30824 142.322 9.31376 142.353 9.32588C142.384 9.338 142.412 9.35646 142.436 9.38009C142.459 9.40372 142.478 9.43201 142.49 9.46315C142.502 9.4943 142.508 9.52763 142.506 9.56103V10.6297C142.508 10.6631 142.502 10.6965 142.49 10.7277C142.478 10.7589 142.46 10.7872 142.436 10.8108C142.412 10.8345 142.384 10.853 142.353 10.8651C142.322 10.8772 142.288 10.8828 142.255 10.8813H139.803V17.6079C139.803 18.6136 140.327 19.1165 141.397 19.1165H142.255C142.289 19.1151 142.322 19.1206 142.353 19.1327C142.385 19.1449 142.413 19.1634 142.437 19.187C142.46 19.2107 142.479 19.239 142.491 19.2702C142.503 19.3013 142.509 19.3347 142.507 19.3681V20.5616C142.509 20.5951 142.503 20.6284 142.491 20.6596C142.479 20.6908 142.46 20.7191 142.437 20.7427C142.413 20.7664 142.385 20.7849 142.353 20.797C142.322 20.8092 142.289 20.8147 142.255 20.8133H141.124C139.111 20.8128 137.938 19.7231 137.938 17.879Z" fill="white"/>
<path d="M150.879 20.5624V19.0748C150.525 19.6856 150.014 20.1905 149.398 20.5368C148.783 20.8832 148.086 21.0584 147.38 21.0444C145.284 21.0444 143.901 19.6823 143.901 17.6287C143.901 15.4915 145.473 14.1712 148.763 14.1712H150.816V12.7254C150.816 11.3215 150.062 10.651 148.532 10.651C147.191 10.651 146.52 11.1747 146.164 12.2014C146.159 12.2335 146.147 12.2641 146.129 12.2909C146.11 12.3176 146.086 12.34 146.058 12.3562C146.03 12.3724 145.999 12.3821 145.966 12.3846C145.934 12.387 145.901 12.3822 145.871 12.3704L144.551 12.0141C144.518 12.0097 144.486 11.9982 144.458 11.9804C144.43 11.9626 144.407 11.9389 144.389 11.911C144.371 11.8831 144.359 11.8517 144.354 11.8188C144.35 11.7859 144.352 11.7524 144.362 11.7207C144.802 10.149 146.164 9.08057 148.574 9.08057C151.151 9.08057 152.682 10.2538 152.682 12.6846V20.5624C152.683 20.5959 152.677 20.6292 152.665 20.6604C152.653 20.6916 152.635 20.7199 152.611 20.7436C152.587 20.7673 152.559 20.7857 152.528 20.7979C152.497 20.81 152.463 20.8155 152.43 20.814H151.131C151.097 20.8155 151.064 20.8099 151.033 20.7978C151.002 20.7857 150.973 20.7672 150.95 20.7435C150.926 20.7199 150.908 20.6915 150.896 20.6604C150.883 20.6292 150.878 20.5958 150.879 20.5624ZM147.883 19.4727C149.245 19.4727 150.272 18.6348 150.816 17.3146V15.4703H148.763C146.793 15.4703 145.724 16.1621 145.724 17.5227C145.724 18.6759 146.5 19.4722 147.883 19.4722V19.4727Z" fill="white"/>
<path d="M155.582 20.562V5.15979C155.581 5.12643 155.586 5.09314 155.599 5.06203C155.611 5.03092 155.629 5.00266 155.653 4.97904C155.676 4.95541 155.705 4.93695 155.736 4.92479C155.767 4.91264 155.8 4.90707 155.833 4.90844H157.217C157.25 4.90697 157.283 4.91246 157.315 4.92457C157.346 4.93667 157.374 4.95512 157.398 4.97876C157.422 5.00239 157.44 5.03069 157.452 5.06185C157.464 5.09302 157.47 5.12637 157.469 5.15979V20.562C157.47 20.5954 157.464 20.6288 157.452 20.66C157.44 20.6912 157.422 20.7195 157.398 20.7432C157.374 20.7668 157.346 20.7853 157.315 20.7974C157.284 20.8095 157.25 20.815 157.217 20.8136H155.833C155.8 20.8149 155.767 20.8093 155.736 20.7972C155.704 20.785 155.676 20.7665 155.653 20.7429C155.629 20.7192 155.611 20.6909 155.598 20.6598C155.586 20.6287 155.581 20.5953 155.582 20.562Z" fill="white"/>
<path d="M21.4787 28.347H11.096V5.54799C11.096 4.07657 10.5115 2.66542 9.47102 1.62497C8.43057 0.584517 7.01942 0 5.548 0C4.07657 0 2.66542 0.584517 1.62497 1.62497C0.584517 2.66542 0 4.07657 0 5.54799V24.7288C-5.0159e-08 26.1999 0.584322 27.6109 1.62446 28.6513C2.6646 29.6917 4.07538 30.2764 5.54655 30.2767H9.16481V33.895C9.16481 35.3664 9.74933 36.7776 10.7898 37.818C11.8302 38.8585 13.2414 39.443 14.7128 39.443H21.4782C22.9497 39.443 24.3608 38.8585 25.4013 37.818C26.4417 36.7776 27.0262 35.3664 27.0262 33.895C27.0262 32.4236 26.4417 31.0124 25.4013 29.972C24.3608 28.9315 22.9497 28.347 21.4782 28.347H21.4787ZM9.16433 28.347H5.54655C4.58693 28.347 3.66661 27.9658 2.98805 27.2872C2.3095 26.6087 1.92829 25.6884 1.92829 24.7288V5.54799C1.92829 4.58837 2.3095 3.66806 2.98805 2.9895C3.66661 2.31095 4.58693 1.92974 5.54655 1.92974C6.50617 1.92974 7.42649 2.31095 8.10504 2.9895C8.7836 3.66806 9.16481 4.58837 9.16481 5.54799L9.16433 28.347ZM21.4787 37.5133H14.7133C13.7537 37.5132 12.8334 37.132 12.1549 36.4534C11.4763 35.7749 11.0951 34.8546 11.095 33.895V30.2767H21.4778C22.4374 30.2767 23.3577 30.658 24.0362 31.3365C24.7148 32.0151 25.096 32.9354 25.096 33.895C25.096 34.8546 24.7148 35.7749 24.0362 36.4535C23.3577 37.1321 22.4374 37.5133 21.4778 37.5133H21.4787ZM30.9922 30.2767C32.4636 30.2767 33.8748 29.6922 34.9152 28.6518C35.9557 27.6113 36.5402 26.2002 36.5402 24.7288V14.7142C36.5403 13.9856 36.3969 13.2641 36.1182 12.5909C35.8395 11.9177 35.4309 11.306 34.9157 10.7908C34.4006 10.2755 33.789 9.86674 33.1159 9.58784C32.4428 9.30893 31.7213 9.16535 30.9927 9.16529H27.3744V5.54799C27.3744 4.07657 26.7899 2.66542 25.7495 1.62497C24.709 0.584517 23.2978 0 21.8264 0H18.8992C17.4278 0 16.0166 0.584517 14.9762 1.62497C13.9357 2.66542 13.3512 4.07657 13.3512 5.54799C13.3512 7.01941 13.9357 8.43057 14.9762 9.47102C16.0166 10.5115 17.4278 11.096 18.8992 11.096H25.4444V24.7288C25.4444 25.4573 25.5879 26.1788 25.8668 26.8519C26.1456 27.5251 26.5543 28.1367 27.0695 28.6519C27.5847 29.167 28.1963 29.5757 28.8695 29.8545C29.5426 30.1333 30.2641 30.2768 30.9927 30.2767H30.9922ZM18.8992 9.16529C17.9396 9.16529 17.0193 8.78408 16.3407 8.10553C15.6622 7.42697 15.281 6.50665 15.281 5.54703C15.281 4.58741 15.6622 3.66709 16.3407 2.98854C17.0193 2.30998 17.9396 1.92877 18.8992 1.92877H21.8262C22.7858 1.92877 23.7061 2.30998 24.3847 2.98854C25.0632 3.66709 25.4444 4.58741 25.4444 5.54703V9.16529H18.8992ZM30.9924 28.346C30.033 28.346 29.1129 27.9649 28.4344 27.2865C27.756 26.6082 27.3747 25.6882 27.3744 24.7288V11.097H30.9927C31.4678 11.097 31.9383 11.1905 32.3773 11.3724C32.8163 11.5542 33.2152 11.8207 33.5512 12.1567C33.8872 12.4927 34.1537 12.8916 34.3355 13.3306C34.5174 13.7696 34.6109 14.2401 34.6109 14.7152V24.7297C34.6107 25.6892 34.2294 26.6092 33.5508 27.2876C32.8723 27.9659 31.9521 28.347 30.9927 28.347L30.9924 28.346Z" fill="white"/>
<path d="M53.9492 32.0911C53.9492 29.6765 55.4537 28.4692 57.3103 28.4692C59.1669 28.4692 60.6717 29.6765 60.6717 32.0911C60.6717 34.5098 59.1669 35.7142 57.3103 35.7142C55.4537 35.7142 53.9492 34.5214 53.9492 32.0911ZM57.3103 34.7955C58.2279 34.7955 58.9694 33.8376 58.9694 32.0911C58.9694 30.3616 58.2269 29.3868 57.3103 29.3868C56.3937 29.3868 55.6515 30.3613 55.6515 32.0911C55.6515 33.826 56.394 34.7957 57.3103 34.7957V34.7955Z" fill="white"/>
<path fill-rule="evenodd" clip-rule="evenodd" d="M47.4346 28.7334V35.4488H48.6013V30.9382L52.2053 35.4491H53.1861V28.7334H52.0754V32.4357L49.083 28.7334H47.4346Z" fill="white"/>
<path fill-rule="evenodd" clip-rule="evenodd" d="M85.0266 28.7334L82.3027 35.4491H83.4794L84.2303 33.6019H86.7031L87.4629 35.4491H89.3705L86.6178 28.7334H85.0266ZM84.6096 32.638L85.462 30.534L86.3138 32.638H84.6096Z" fill="white"/>
<path fill-rule="evenodd" clip-rule="evenodd" d="M74.0686 33.1335C74.0372 33.7487 73.9899 34.3577 73.3085 34.5849C72.9221 34.6901 72.5134 34.6805 72.1323 34.5574C71.9958 34.5092 71.872 34.4307 71.7702 34.3278C71.5434 34.1039 71.4543 33.6275 71.4456 33.3175V28.7334H69.6953V33.1335C69.7122 33.7413 69.8093 34.3524 70.2046 34.8425C70.8828 35.6821 72.1263 35.8028 73.1315 35.678C73.7406 35.6306 74.3125 35.3666 74.7437 34.9338C75.0473 34.5819 75.238 34.1468 75.2909 33.685C75.3188 33.5025 75.331 33.318 75.3273 33.1335V28.7334H74.0679V33.1335H74.0686Z" fill="white"/>
<path fill-rule="evenodd" clip-rule="evenodd" d="M78.1994 29.6797C78.9704 29.6797 79.7358 29.5488 80.0712 30.3504C80.2035 30.6672 80.2122 31.3858 79.9039 31.6913C79.5366 32.0554 78.9735 32.0904 78.487 32.1324L80.2839 35.4491H82.127L80.4969 32.4907C81.469 32.1503 81.9254 31.6007 81.8773 30.5525C81.8254 29.4177 80.8682 28.7334 79.7744 28.7334H76.458V35.4491H78.1994V29.6797Z" fill="white"/>
<path fill-rule="evenodd" clip-rule="evenodd" d="M66.8612 35.4491L64.2672 28.7334H62.9051L60.3857 35.4488H61.6085L63.3035 30.9094L65.0263 35.4488L66.8612 35.4491Z" fill="white"/>
<path fill-rule="evenodd" clip-rule="evenodd" d="M66.9444 28.7334H65.5176L65.083 29.8815L65.7036 31.4892L65.9259 30.9097L67.6026 35.4491H69.5391L66.9449 28.7336L66.9444 28.7334Z" fill="white"/>
<path fill-rule="evenodd" clip-rule="evenodd" d="M63.7764 33.105L62.9053 35.4471H64.016L64.3398 34.5643L63.7755 33.104L63.7764 33.105Z" fill="white"/>
<path d="M98.0368 34.5753C97.7782 34.9023 97.4463 35.164 97.068 35.3392C96.6896 35.5143 96.2753 35.5981 95.8586 35.5836C93.833 35.5836 92.625 33.9286 92.625 32.1592C92.625 30.1809 93.7092 28.4692 95.8586 28.4692C97.3424 28.4692 98.5219 29.1347 98.7786 30.723H97.8753C97.6944 29.6959 96.867 29.2301 95.8586 29.2301C94.2133 29.2301 93.5288 30.6566 93.5288 32.1116C93.5288 33.529 94.3466 34.8225 95.8586 34.8225C97.2569 34.8225 98.094 33.8429 98.0368 32.6066H95.8683V31.8453H98.8457V35.4216H98.2749L98.0368 34.5753Z" fill="white"/>
<path d="M100.019 30.5048H100.779V31.5414H100.798C101.188 30.7523 101.731 30.3623 102.606 30.3906V31.2468C101.302 31.2468 100.827 31.9888 100.827 33.2347V35.4221H100.019V30.5048Z" fill="white"/>
<path d="M105.166 30.3901C106.726 30.3901 107.554 31.5221 107.554 32.9679C107.554 34.4041 106.726 35.5359 105.166 35.5359C103.606 35.5359 102.779 34.4041 102.779 32.9679C102.779 31.5221 103.607 30.3901 105.166 30.3901ZM105.166 34.8226C106.013 34.8226 106.698 34.1566 106.698 32.9679C106.698 31.7696 106.013 31.1039 105.166 31.1039C104.319 31.1039 103.635 31.7696 103.635 32.9679C103.635 34.1557 104.32 34.8226 105.166 34.8226Z" fill="white"/>
<path d="M112.579 35.4212H111.818V34.6413H111.799C111.644 34.9262 111.412 35.1614 111.129 35.3196C110.846 35.4777 110.524 35.5523 110.201 35.5347C108.907 35.5347 108.508 34.7929 108.508 33.737V30.5039H109.316V33.8329C109.307 33.9661 109.326 34.0998 109.373 34.2249C109.42 34.3499 109.493 34.4634 109.588 34.5574C109.683 34.6514 109.797 34.7238 109.922 34.7696C110.048 34.8155 110.182 34.8336 110.315 34.8229C111.294 34.8229 111.77 34.1666 111.77 33.2819V30.5051H112.579V35.4212Z" fill="white"/>
<path d="M113.828 30.5043H114.636V31.1705H114.656C114.921 30.628 115.549 30.3901 116.225 30.3901C117.738 30.3901 118.489 31.5887 118.489 32.9771C118.489 34.3655 117.747 35.5366 116.244 35.5366C115.74 35.5366 115.017 35.3466 114.656 34.7661H114.637V37.3055H113.829L113.828 30.5043ZM116.111 31.1039C115.027 31.1039 114.609 32.0359 114.609 32.9583C114.609 33.9287 115.046 34.8226 116.158 34.8226C117.262 34.8226 117.633 33.8809 117.633 32.9204C117.632 31.998 117.157 31.1039 116.111 31.1039Z" fill="white"/>
</svg>
