<svg width="458" height="79" viewBox="0 0 458 79" fill="none" xmlns="http://www.w3.org/2000/svg">
<g clip-path="url(#clip0_1238_1383)">
<path d="M8.8846 24.2902C8.8846 25.9206 9.6185 26.5725 11.3295 26.5725H12.4707C16.6273 26.5725 18.5836 24.6981 18.5836 19.7256C18.5836 15.2423 16.0567 13.6125 11.6555 13.6125H8.8846V24.2902ZM11.6562 12.8786C15.9762 12.8786 17.6066 10.7596 17.6066 6.68431C17.6066 2.201 15.6502 1.22317 11.7382 1.22317H8.80257V12.8793L11.6562 12.8786ZM0 26.6538L2.03767 26.4092C4.23868 26.0832 4.4826 25.4312 4.4826 23.801V4.07606C4.4826 2.36432 4.23796 1.71244 2.03767 1.46781L0 1.22317V0.571289H12.1447C17.198 0.571289 22.3331 2.03838 22.3331 6.76561C22.3331 10.515 18.9096 12.5527 14.345 13.1233V13.2866C19.8062 13.6125 23.5556 15.4876 23.5556 19.8076C23.5556 24.7794 19.2357 27.3065 12.552 27.3065H0V26.6538Z" fill="white"/>
<path d="M44.9111 13.8572C46.0521 13.9385 46.9487 13.9385 47.9265 13.9385C52.2464 13.9385 54.4476 12.1454 54.4476 7.66213C54.4476 2.69027 52.1651 1.22317 47.6826 1.22317H44.9111V13.8572ZM57.7083 27.3065C55.2634 27.3065 54.9368 26.7358 54.0403 25.024L48.7418 14.5911H47.8452C46.7854 14.5911 45.7262 14.5911 44.9111 14.5098V23.7197C44.9111 25.4312 45.1557 26.0832 47.356 26.3279L49.3936 26.5725V27.3065H36.0264V26.6538L38.064 26.4092C40.2652 26.0832 40.5091 25.4312 40.5091 23.801V4.07606C40.5091 2.36432 40.2643 1.71244 38.064 1.46781L36.0264 1.22317V0.571289H47.6819C54.6915 0.571289 59.1748 2.52766 59.1748 7.58082C59.1748 11.4115 55.8326 13.3679 52.6538 13.9385C53.3648 14.754 53.9674 15.658 54.4467 16.628L57.9515 23.067C59.1741 25.3492 59.6633 26.0013 61.375 26.4092L62.7609 26.7351V27.3056L57.7083 27.3065Z" fill="white"/>
<path d="M84.6057 13.124C87.1326 13.124 87.9477 11.4123 89.2515 7.2556H89.9034V19.8083H89.2515C87.8657 15.325 87.1326 13.8579 84.6057 13.8579H81.7527V24.2902C81.7527 25.9206 82.4867 26.5725 84.1976 26.5725H86.7246C91.2892 26.5725 92.4304 24.8607 94.9566 17.9326H95.7718L95.3645 27.3056H72.8682V26.6538L74.9058 26.4092C77.1068 26.0832 77.3507 25.4312 77.3507 23.801V4.07606C77.3507 2.36432 77.1061 1.71244 74.9058 1.46781L72.8682 1.22317V0.571289H94.142L94.5494 9.12994H93.7341C91.3705 3.09823 90.3106 1.30519 86.3987 1.30519H81.6714V13.2053H84.6057V13.124Z" fill="white"/>
<path d="M110.77 5.46184C109.629 2.44635 108.814 1.63114 107.184 1.3865L105.717 1.22317V0.571289C107.999 0.652595 110.281 0.652595 112.482 0.652595C114.764 0.652595 116.965 0.652595 119.246 0.571289V1.22317L116.964 1.46781C114.845 1.71244 114.601 2.85359 115.252 4.56533L121.855 22.8237L127.642 7.1743C129.109 3.34358 128.783 2.03911 126.094 1.55054L124.137 1.2246V0.571289C125.93 0.652595 127.642 0.652595 129.354 0.652595C131.147 0.652595 132.858 0.652595 134.651 0.571289V1.14186L133.184 1.54911C130.902 2.03838 130.087 3.26085 128.457 7.4175L122.67 22.823L121.122 27.3885H119.247L110.77 5.46184Z" fill="white"/>
<path d="M144.026 17.7685H153.726L148.917 4.97185L144.026 17.7685ZM158.617 27.2244H152.259V26.5724L154.541 26.3278C156.66 26.0832 156.578 24.9419 155.927 23.2304L154.133 18.5843H143.782L142.966 20.7033C141.499 24.616 141.499 25.7566 144.108 26.2458L146.064 26.5717V27.3057H136.364V26.735L137.669 26.4091C139.788 25.8386 140.522 24.7786 142.152 20.5407L148.183 4.97185L149.731 0.407227H151.77L160.328 22.4144C161.47 25.4298 161.959 26.2451 163.588 26.4897L164.893 26.653V27.3049C162.692 27.3049 160.818 27.2244 158.617 27.2244Z" fill="white"/>
<path d="M178.422 3.75012V21.6007C178.422 25.024 179.156 26.0019 181.275 26.3279L182.904 26.5725V27.3065H173.041V26.6538L174.672 26.4092C176.873 26.0832 177.525 25.1046 177.525 21.682V4.07606C177.525 2.36432 177.28 1.71244 175.081 1.46781L173.043 1.22317V0.571289H181.601L195.946 21.6827V6.19503C195.946 2.77158 195.214 1.79376 193.094 1.46781L191.464 1.22317V0.571289C193.256 0.571289 194.642 0.652595 196.435 0.652595C198.228 0.652595 199.614 0.571289 201.326 0.571289V1.22317L199.696 1.46781C197.576 1.79376 196.843 2.77228 196.843 6.19503V27.3065H194.397L178.422 3.75012Z" fill="white"/>
<path d="M260.583 4.07606C260.583 2.36432 260.337 1.71244 258.137 1.46781L256.099 1.22317V0.571289C258.463 0.571289 260.42 0.652595 262.784 0.652595C265.065 0.652595 267.103 0.571289 269.467 0.571289V1.22317L267.429 1.46781C265.228 1.79376 264.984 2.44563 264.984 4.07606V23.7197C264.984 25.4312 265.228 26.0832 267.429 26.3279L269.467 26.5725V27.3063H256.099V26.6538L258.137 26.4092C260.337 26.0832 260.581 25.4312 260.581 23.801V14.0205H248.112V23.7203C248.112 25.4321 248.356 26.0839 250.556 26.3285L252.594 26.5732V27.3072H239.227V26.6538L241.264 26.4092C243.465 26.0832 243.709 25.4312 243.709 23.801V4.07606C243.709 2.36432 243.465 1.71244 241.264 1.46781L239.227 1.22317V0.571289C241.59 0.571289 243.548 0.652595 245.91 0.652595C248.273 0.652595 250.231 0.571289 252.594 0.571289V1.22317L250.556 1.46781C248.356 1.79376 248.112 2.44563 248.112 4.07606V13.2053H260.583V4.07606Z" fill="white"/>
<path d="M291.962 27.3057C297.913 27.3057 300.357 21.274 300.357 13.9385C300.357 6.603 297.995 0.570577 291.962 0.570577C285.849 0.570577 283.485 6.60228 283.485 13.9378C283.485 21.2733 285.768 27.3057 291.962 27.3057ZM291.962 27.8756C284.628 27.8756 278.595 22.3331 278.595 13.9378C278.595 5.46113 284.545 0 291.962 0C299.297 0 305.248 5.54244 305.248 13.9378C305.248 22.3331 299.297 27.8756 291.962 27.8756Z" fill="white"/>
<path d="M317.638 5.37909C316.66 2.52621 315.926 1.62969 314.133 1.38505L312.747 1.22173V0.569841C315.03 0.651148 317.312 0.651147 319.512 0.651147C321.796 0.651147 323.996 0.651148 326.278 0.569841V1.22173L323.995 1.46636C321.794 1.71099 321.55 3.01476 322.039 4.56389L327.336 22.0065L333.451 0.407227H335.489L342.581 22.0071L346.982 7.17213C348.286 2.85215 347.389 1.95564 344.862 1.46636L343.15 1.14042V0.488533C344.944 0.569841 346.656 0.569841 348.449 0.569841C350.161 0.569841 351.953 0.569841 353.665 0.488533V1.05911L352.279 1.38505C349.915 1.87433 349.018 3.17808 347.795 7.33545L343.231 22.4144L341.927 27.3049H339.889L332.635 5.86836L327.909 22.3331L326.604 27.3049H324.648L317.638 5.37909Z" fill="white"/>
<path d="M364.506 17.7685H374.204L369.396 4.97185L364.506 17.7685ZM379.014 27.2244H372.657V26.5724L374.939 26.3278C377.057 26.0832 376.976 24.9419 376.325 23.2304L374.53 18.5843H364.18L363.365 20.7033C361.897 24.616 361.897 25.7566 364.506 26.2458L366.461 26.5717V27.3057H356.763V26.735L358.066 26.4091C360.185 25.8386 360.919 24.7786 362.55 20.5407L368.581 4.97185L370.129 0.407227H372.168L380.726 22.4144C381.867 25.4298 382.356 26.2451 383.987 26.4897L385.291 26.653V27.3049C383.172 27.3049 381.297 27.2244 379.014 27.2244Z" fill="white"/>
<path d="M402.244 13.8572C403.385 13.9385 404.282 13.9385 405.26 13.9385C409.579 13.9385 411.782 12.1454 411.782 7.66213C411.782 2.69027 409.498 1.22317 405.016 1.22317H402.244V13.8572ZM415.042 27.3065C412.596 27.3065 412.27 26.7358 411.373 25.024L406.076 14.5911H405.179C404.119 14.5911 403.061 14.5911 402.246 14.5098V23.7197C402.246 25.4312 402.489 26.0832 404.69 26.3279L406.728 26.5725V27.3065H393.36V26.6538L395.398 26.4092C397.599 26.0832 397.843 25.4312 397.843 23.801V4.07606C397.843 2.36432 397.597 1.71244 395.398 1.46781L393.36 1.22317V0.571289H404.934C411.943 0.571289 416.427 2.52766 416.427 7.58082C416.427 11.4115 413.085 13.3679 409.905 13.9385C410.617 14.754 411.219 15.658 411.699 16.628L415.204 23.067C416.427 25.3492 416.916 26.0013 418.628 26.4092L420.014 26.7351V27.3056L415.042 27.3065Z" fill="white"/>
<path d="M441.857 26.5725C447.888 26.5725 451.23 23.0677 451.23 13.9385C451.23 4.72794 447.725 1.22317 441.857 1.22317H438.433V24.2089C438.433 25.8393 439.168 26.4912 440.879 26.4912H441.857V26.5725ZM429.632 26.6538L431.668 26.4092C433.87 26.0832 434.114 25.4312 434.114 23.801V4.07606C434.114 2.36432 433.869 1.71244 431.668 1.46781L429.632 1.22317V0.571289H441.939C449.357 0.571289 456.285 4.3207 456.285 13.9385C456.285 23.5562 449.437 27.3056 441.939 27.3056H429.712V26.6538H429.632Z" fill="white"/>
<path d="M305.333 77.1069C305.333 75.5585 305.414 62.1092 305.333 59.4191H309.735C311.014 59.3808 312.294 59.4354 313.565 59.5824C315.929 59.9083 320.9 62.1092 320.9 67.8963C320.9 75.4765 315.032 76.781 313.076 76.9436C311.527 77.1069 308.592 77.1069 307.451 77.1069H305.333ZM307.371 76.047C307.86 76.2103 312.261 76.4542 314.054 75.7211C315.685 75.0693 318.701 73.6021 318.944 68.7116C319.039 66.8647 318.488 65.0427 317.389 63.5561C316.289 62.0696 314.707 61.0107 312.913 60.5601C311.078 60.3007 309.223 60.1916 307.371 60.2342C307.289 65.2875 307.371 70.9932 307.371 76.047Z" fill="white"/>
<path d="M334.024 77.1083C334.024 75.56 334.105 62.1108 334.024 59.4204H335.98V77.1083H334.024Z" fill="white"/>
<path d="M363.367 69.3637H365.405V75.8846C363.325 76.7108 361.12 77.1794 358.883 77.2705C354.319 77.2705 349.511 74.3362 349.511 68.4678C349.511 63.496 353.015 59.1761 358.64 59.1761C361.023 59.0747 363.364 59.826 365.242 61.295L364.59 63.0066C362.961 60.4797 361.086 60.0725 359.048 60.0725C354.077 60.0725 351.713 64.5558 351.713 68.5491C351.713 73.6024 355.055 76.6998 359.456 76.6998C360.793 76.6156 362.096 76.2547 363.287 75.64V69.3637H363.367Z" fill="white"/>
<path d="M379.587 77.1083C379.587 75.56 379.668 62.1108 379.587 59.4204H381.542V77.1083H379.587Z" fill="white"/>
<path d="M400.616 77.1083V60.1544H394.422L394.585 59.4204H409.093V60.1544H402.572V77.1083H400.616Z" fill="white"/>
<path d="M430.53 77.1071C429.959 75.3954 428.981 73.0318 428.167 70.9128H421.158L418.549 77.1071H417.814L425.232 59.1753H425.477C425.477 59.1753 425.883 60.3163 426.129 61.0497C428.412 66.7553 431.753 74.6614 432.812 77.1071H430.53ZM427.921 70.0975C426.535 66.5927 424.743 62.1914 424.743 62.1914V61.8655L421.484 70.0975H427.921Z" fill="white"/>
<path d="M445.69 77.1083C445.69 75.56 445.773 62.1108 445.69 59.4204H447.728V76.3745C447.728 76.3745 454.983 76.4558 456.288 76.2112L455.962 77.1083H445.69Z" fill="white"/>
</g>
<defs>
<clipPath id="clip0_1238_1383">
<rect width="458" height="78.9064" fill="white"/>
</clipPath>
</defs>
</svg>
