<svg width="415" height="102" viewBox="0 0 415 102" fill="none" xmlns="http://www.w3.org/2000/svg">
<rect y="57.4604" width="11.5921" height="22.9145" fill="white"/>
<rect y="32.6587" width="11.5921" height="14.5575" fill="white"/>
<rect x="11.3223" y="57.73" width="10.7833" height="22.9145" transform="rotate(-90 11.3223 57.73)" fill="white"/>
<rect x="11.3223" y="32.6587" width="11.0529" height="25.8799" transform="rotate(-90 11.3223 32.6587)" fill="white"/>
<path d="M68.138 41.3386V50.8897C67.0588 50.7279 66.0335 50.6469 65.0622 50.6469C57.9933 50.6469 54.4589 54.5051 54.4589 62.2216V81H45.0696V41.5815H54.216V47.8949C55.1334 45.7904 56.6173 44.1446 58.6678 42.9575C60.7183 41.7164 63.0387 41.0958 65.6288 41.0958C66.4922 41.0958 67.3286 41.1767 68.138 41.3386ZM73.6268 70.3157C73.6268 66.9701 74.7061 64.2991 76.8645 62.3025C79.0769 60.252 81.9638 58.9569 85.5252 58.4173L95.6429 56.8794C97.5855 56.6096 98.5568 55.6653 98.5568 54.0465C98.5568 52.2657 97.9363 50.8358 96.6952 49.7566C95.4541 48.6234 93.5924 48.0568 91.1102 48.0568C88.7359 48.0568 86.8473 48.7313 85.4443 50.0803C84.0413 51.3754 83.2319 53.0752 83.0161 55.1796L74.4363 53.237C74.814 49.6756 76.5138 46.6538 79.5356 44.1716C82.5574 41.6354 86.3886 40.3673 91.0293 40.3673C96.7491 40.3673 100.958 41.7433 103.656 44.4954C106.408 47.2474 107.784 50.7818 107.784 55.0987V74.6866C107.784 77.2767 107.946 79.3812 108.27 81H99.5281C99.2583 80.1906 99.1234 78.5178 99.1234 75.9816C96.5333 80.1366 92.4862 82.2141 86.9822 82.2141C82.9891 82.2141 79.7514 81.054 77.2692 78.7336C74.841 76.3593 73.6268 73.5534 73.6268 70.3157ZM88.7629 74.8484C91.6768 74.8484 94.0241 74.066 95.8048 72.5011C97.6395 70.8823 98.5568 68.2652 98.5568 64.6498V62.8691L88.2773 64.407C84.7698 65.0005 83.0161 66.7813 83.0161 69.7491C83.0161 71.1521 83.5287 72.3662 84.5539 73.3915C85.5792 74.3628 86.9822 74.8484 88.7629 74.8484ZM128.443 81H119.134V41.5815H128.119V46.5998C129.198 44.6572 130.817 43.1463 132.975 42.0671C135.188 40.9879 137.454 40.4483 139.774 40.4483C142.419 40.4483 144.793 41.0418 146.897 42.229C149.002 43.4161 150.567 45.1429 151.592 47.4092C154.344 42.7686 158.607 40.4483 164.381 40.4483C168.266 40.4483 171.557 41.7164 174.256 44.2525C176.954 46.7887 178.303 50.512 178.303 55.4225V81H169.237V56.9604C169.237 54.5321 168.59 52.5895 167.295 51.1326C166.053 49.6217 164.165 48.8662 161.629 48.8662C159.2 48.8662 157.231 49.7026 155.72 51.3754C154.209 53.0482 153.454 55.1257 153.454 57.6079V81H144.226V56.9604C144.226 54.5321 143.579 52.5895 142.284 51.1326C141.043 49.6217 139.154 48.8662 136.618 48.8662C134.136 48.8662 132.139 49.7026 130.628 51.3754C129.171 52.9942 128.443 55.0717 128.443 57.6079V81ZM196.356 56.9604H215.701C215.593 54.4781 214.703 52.4006 213.03 50.7279C211.412 49.0551 209.064 48.2187 205.988 48.2187C203.182 48.2187 200.916 49.109 199.189 50.8897C197.463 52.6165 196.518 54.64 196.356 56.9604ZM216.754 67.2399L224.686 69.7491C223.553 73.3645 221.421 76.3593 218.292 78.7336C215.216 81.054 211.412 82.2141 206.879 82.2141C201.267 82.2141 196.491 80.2985 192.552 76.4673C188.667 72.636 186.724 67.5097 186.724 61.0884C186.724 55.0447 188.613 50.0803 192.39 46.1951C196.221 42.3099 200.727 40.3673 205.907 40.3673C211.951 40.3673 216.673 42.229 220.072 45.9523C223.472 49.6217 225.172 54.5861 225.172 60.8455C225.172 62.5183 225.091 63.5166 224.929 63.8404H196.114C196.221 66.8082 197.301 69.2635 199.351 71.2061C201.456 73.1487 203.965 74.12 206.879 74.12C211.951 74.12 215.243 71.8266 216.754 67.2399ZM255.931 41.5815H265.644L274.952 68.8588L282.803 41.5815H292.354L279.727 81H270.338L260.544 52.6704L250.993 81H241.361L228.572 41.5815H238.609L246.622 68.8588L255.931 41.5815ZM308.036 70.4776C310.194 72.69 312.811 73.7962 315.887 73.7962C318.963 73.7962 321.553 72.69 323.657 70.4776C325.816 68.2652 326.895 65.1894 326.895 61.2503C326.895 57.3651 325.816 54.3432 323.657 52.1848C321.553 49.9724 318.963 48.8662 315.887 48.8662C312.811 48.8662 310.194 49.9724 308.036 52.1848C305.931 54.3432 304.879 57.3651 304.879 61.2503C304.879 65.1355 305.931 68.2112 308.036 70.4776ZM315.887 40.3673C321.823 40.3673 326.706 42.3369 330.537 46.2761C334.422 50.2152 336.365 55.2066 336.365 61.2503C336.365 67.2939 334.422 72.3123 330.537 76.3054C326.706 80.2445 321.823 82.2141 315.887 82.2141C310.005 82.2141 305.122 80.2445 301.236 76.3054C297.405 72.3123 295.49 67.2939 295.49 61.2503C295.49 55.2066 297.405 50.2152 301.236 46.2761C305.122 42.3369 310.005 40.3673 315.887 40.3673ZM368.507 41.3386V50.8897C367.428 50.7279 366.403 50.6469 365.431 50.6469C358.362 50.6469 354.828 54.5051 354.828 62.2216V81H345.439V41.5815H354.585V47.8949C355.502 45.7904 356.986 44.1446 359.037 42.9575C361.087 41.7164 363.408 41.0958 365.998 41.0958C366.861 41.0958 367.698 41.1767 368.507 41.3386ZM413.254 41.5815L397.066 58.2554L413.578 81H402.085L390.51 64.8926L385.653 69.9919V81H376.345V22.3983H385.653V57.5269L400.789 41.5815H413.254Z" fill="white"/>
</svg>
