<svg width="101" height="37" viewBox="0 0 101 37" fill="none" xmlns="http://www.w3.org/2000/svg">
<path d="M0.000183414 14.3499C0.000183414 13.0724 0.540817 12.0739 1.62208 11.3545C2.70335 10.6352 4.44799 10.1518 6.856 9.90433C6.82288 9.36467 6.65898 8.93484 6.36431 8.61485C6.06964 8.29485 5.59452 8.13437 4.93894 8.13339C4.40149 8.13473 3.86876 8.23375 3.36672 8.42563C2.78793 8.64813 2.22899 8.91916 1.69587 9.23585L0.418078 6.8556C1.19765 6.38303 2.02548 5.99508 2.88746 5.69835C3.76953 5.40119 4.69494 5.25304 5.62569 5.26C7.19889 5.26 8.39899 5.70639 9.22602 6.59916C10.053 7.49194 10.467 8.88005 10.468 10.7635V17.7421H7.51937L7.24905 16.4891H7.17599C6.67411 16.9325 6.11631 17.3083 5.51683 17.6069C4.92387 17.8959 4.2718 18.043 3.6122 18.0365C3.0987 18.0442 2.58895 17.9478 2.11377 17.753C1.68504 17.5743 1.29946 17.306 0.982821 16.9662C0.669191 16.6261 0.423226 16.2294 0.25808 15.7972C0.0828961 15.335 -0.00456424 14.8442 0.000183414 14.3499ZM3.44051 14.0796C3.44051 14.4737 3.56739 14.7644 3.82115 14.9519C4.0749 15.1395 4.41584 15.2337 4.84397 15.2347C5.26965 15.2347 5.63008 15.1446 5.92523 14.9644C6.26414 14.7475 6.57652 14.4918 6.856 14.2024V12.0647C5.5614 12.2454 4.66862 12.5077 4.17767 12.8515C3.68672 13.1954 3.441 13.6047 3.44051 14.0796Z" fill="white"/>
<path d="M13.5645 5.55215H16.5116L16.7571 7.68984H16.8557C17.298 6.85503 17.8303 6.24085 18.4528 5.84731C19.0753 5.45376 19.6982 5.25797 20.3216 5.25992C20.6056 5.25529 20.8895 5.27583 21.1698 5.32128C21.3772 5.35761 21.5793 5.41894 21.7719 5.50393L21.1823 8.62499C20.9721 8.56438 20.7587 8.5156 20.543 8.47888C20.3153 8.44382 20.0851 8.42745 19.8548 8.42993C19.396 8.42993 18.917 8.59358 18.4177 8.92088C17.9185 9.24818 17.5047 9.82997 17.1765 10.6662V17.7434H13.5645V5.55215Z" fill="white"/>
<path d="M23.3438 5.55215H26.2924L26.5386 7.68984H26.6365C27.0792 6.85503 27.6116 6.24085 28.2336 5.84731C28.8555 5.45377 29.4777 5.25797 30.1002 5.25992C30.384 5.25528 30.6676 5.27582 30.9477 5.32129C31.1551 5.35798 31.3572 5.4198 31.5497 5.50539L30.9601 8.62646C30.7499 8.56585 30.5365 8.51706 30.3208 8.48034C30.0934 8.4453 29.8635 8.42893 29.6334 8.43139C29.1736 8.43139 28.6943 8.59504 28.1956 8.92234C27.6968 9.24964 27.2845 9.83095 26.9587 10.6663V17.7434H23.3438V5.55215Z" fill="white"/>
<path d="M33.124 5.55176H36.7368V17.7408H33.124V5.55176Z" fill="white"/>
<path d="M39.9062 5.552H42.8549L43.1004 7.10011H43.199C43.7235 6.60862 44.3002 6.17598 44.9188 5.8099C45.5413 5.44314 46.2704 5.25977 47.1062 5.25977C48.4329 5.25977 49.3953 5.69325 49.9934 6.56021C50.5915 7.42717 50.8904 8.63117 50.8899 10.1722V17.7411H47.2779V10.6398C47.2779 9.7553 47.1593 9.14916 46.9221 8.82137C46.6849 8.49358 46.3037 8.3292 45.7787 8.32822C45.3644 8.31625 44.9552 8.42297 44.5995 8.6358C44.2107 8.88918 43.8484 9.18119 43.5183 9.50739V17.7411H39.9062V5.552Z" fill="white"/>
<path d="M53.1992 19.8299C53.1992 18.8465 53.7808 18.0273 54.9439 17.3722V17.2743C54.6189 17.0648 54.3424 16.7883 54.1329 16.4634C53.9196 16.1361 53.8129 15.7182 53.8129 15.2097C53.8167 14.7581 53.9548 14.3179 54.2096 13.945C54.4689 13.5445 54.8025 13.1974 55.1923 12.9222V12.8236C54.7666 12.5284 54.3857 12.1066 54.0496 11.5582C53.7136 11.0098 53.5458 10.3749 53.5462 9.65358C53.5462 8.91617 53.6853 8.27326 53.9634 7.72483C54.2305 7.19102 54.6113 6.7222 55.079 6.35133C55.5574 5.97714 56.103 5.69791 56.6863 5.52869C57.3011 5.34744 57.939 5.25687 58.58 5.25984C59.3008 5.25984 59.9316 5.35725 60.4722 5.55207H64.92V8.18218H62.9766C63.1053 8.39591 63.2006 8.62797 63.2594 8.87039C63.3354 9.16753 63.3725 9.47328 63.3697 9.77997C63.3697 10.4843 63.2479 11.0931 63.0044 11.6064C62.7695 12.1074 62.419 12.5454 61.9816 12.8842C61.5268 13.2303 61.0093 13.4848 60.4576 13.6338C59.846 13.8018 59.2142 13.8849 58.58 13.8807C58.079 13.8765 57.5817 13.7937 57.1064 13.6353C56.9648 13.7401 56.8475 13.8741 56.7623 14.0283C56.6903 14.1904 56.6565 14.3669 56.6637 14.5441C56.6571 14.6858 56.692 14.8263 56.764 14.9485C56.836 15.0708 56.942 15.1694 57.0691 15.2323C57.3394 15.3784 57.8187 15.4515 58.5069 15.4515H60.4722C61.9792 15.4515 63.1301 15.6931 63.9249 16.1762C64.7198 16.6594 65.117 17.4499 65.1165 18.5477C65.1232 19.1682 64.9572 19.7783 64.6373 20.3099C64.2938 20.8665 63.8275 21.3371 63.274 21.6856C62.6837 22.0704 61.9711 22.3736 61.1363 22.5952C60.2125 22.8266 59.2627 22.9381 58.3104 22.9269C57.6382 22.9314 56.9672 22.8698 56.3071 22.7427C55.7429 22.6366 55.1968 22.4503 54.6852 22.1897C54.2445 21.9684 53.8673 21.6386 53.5894 21.2312C53.3293 20.8376 53.1992 20.3705 53.1992 19.8299ZM56.172 19.2644C56.172 19.7232 56.4179 20.0715 56.9099 20.3092C57.4018 20.5469 58.0569 20.6657 58.8751 20.6657C59.6944 20.6657 60.366 20.5223 60.8901 20.2354C61.4142 19.9485 61.6762 19.592 61.6762 19.1658C61.6762 18.7898 61.5167 18.536 61.1977 18.4045C60.8786 18.273 60.4159 18.2075 59.8096 18.208H58.5559C58.1299 18.208 57.7851 18.1956 57.5236 18.1715C57.2917 18.1515 57.0617 18.1144 56.8353 18.0604C56.3936 18.4535 56.1725 18.8548 56.172 19.2644ZM58.5829 11.6963C58.806 11.7014 59.0276 11.6591 59.2332 11.5722C59.4387 11.4853 59.6234 11.3558 59.7752 11.1922C60.0942 10.8571 60.2538 10.3457 60.2538 9.65796C60.2538 9.01943 60.0942 8.53237 59.7752 8.19679C59.6233 8.03335 59.4386 7.90393 59.2331 7.81705C59.0275 7.73016 58.806 7.68778 58.5829 7.69269C58.3607 7.6867 58.1397 7.72714 57.934 7.81143C57.7283 7.89571 57.5425 8.02199 57.3884 8.18218C57.0713 8.50997 56.9128 9.00141 56.9128 9.6565C56.9128 10.3447 57.0723 10.8561 57.3913 11.1907C57.5425 11.3541 57.7266 11.4837 57.9315 11.5708C58.1364 11.658 58.3574 11.7007 58.58 11.6963H58.5829Z" fill="white"/>
<path d="M67.5742 8.37903H65.9033V5.69851L67.7714 5.55239L68.1886 2.30859H71.184V5.55239H74.1063V8.3783H71.184V13.2681C71.184 13.9563 71.3272 14.4519 71.6136 14.7548C71.9 15.0588 72.2813 15.2093 72.7562 15.2093C72.9591 15.2087 73.1611 15.1841 73.3582 15.1362C73.5465 15.0921 73.7313 15.0345 73.9113 14.9638L74.476 17.5939C74.1487 17.6913 73.7637 17.7887 73.321 17.8861C72.812 17.9908 72.2931 18.0398 71.7736 18.0323C71.0196 18.0323 70.3765 17.9178 69.8441 17.6889C69.3388 17.4798 68.8919 17.1508 68.5422 16.7304C68.1925 16.2935 67.9411 15.7864 67.805 15.2436C67.6429 14.6137 67.5643 13.9652 67.5712 13.3149L67.5742 8.37903Z" fill="white"/>
<path d="M75.5361 11.6463C75.5361 10.6308 75.7 9.72584 76.0278 8.93145C76.326 8.18176 76.7734 7.50046 77.3429 6.92892C77.8875 6.39073 78.5354 5.96827 79.2475 5.68692C79.9584 5.40235 80.7173 5.25653 81.4831 5.25734C82.2452 5.25577 83.0003 5.40164 83.707 5.68692C84.4143 5.97043 85.0577 6.39273 85.5992 6.92892C86.1684 7.50068 86.6158 8.18192 86.9143 8.93145C87.2416 9.72633 87.4052 10.6313 87.4052 11.6463C87.4052 12.6613 87.2416 13.5665 86.9143 14.3619C86.616 15.1115 86.1686 15.7928 85.5992 16.3644C85.0579 16.9008 84.4144 17.3231 83.707 17.6064C83.0003 17.8917 82.2452 18.0376 81.4831 18.036C80.7173 18.0368 79.9584 17.891 79.2475 17.6064C78.5352 17.3254 77.8873 16.9029 77.3429 16.3644C76.7732 15.793 76.3258 15.1117 76.0278 14.3619C75.7 13.568 75.5361 12.6628 75.5361 11.6463ZM79.2468 11.6463C79.2468 12.7115 79.4311 13.5553 79.7998 14.1778C80.1685 14.8002 80.7286 15.1115 81.4802 15.1115C82.2176 15.1115 82.7745 14.8002 83.151 14.1778C83.5275 13.5553 83.716 12.7115 83.7165 11.6463C83.7165 10.5821 83.528 9.7385 83.151 9.11556C82.774 8.49261 82.2178 8.18138 81.4824 8.18187C80.7294 8.18187 80.1693 8.4931 79.802 9.11556C79.4348 9.73802 79.2497 10.5816 79.2468 11.6463Z" fill="white"/>
<path d="M89.8857 5.552H92.8344L93.0806 7.10011H93.1785C93.7031 6.60879 94.2798 6.17616 94.8983 5.8099C95.5208 5.44314 96.2499 5.25977 97.0857 5.25977C98.4124 5.25977 99.3748 5.69373 99.9729 6.56167C100.571 7.4296 100.87 8.63361 100.87 10.1737V17.7425H97.2574V10.6413C97.2574 9.75676 97.1385 9.15062 96.9008 8.82283C96.6631 8.49504 96.2825 8.33017 95.7589 8.32822C95.3443 8.31615 94.935 8.42287 94.579 8.6358C94.1903 8.88936 93.8281 9.18136 93.4978 9.50739V17.7411H89.8857V5.552Z" fill="white"/>
<path d="M34.9298 3.75959C34.3239 3.75959 33.8244 3.58352 33.4314 3.23138C33.0383 2.87924 32.8418 2.42457 32.8418 1.86738C32.8418 1.31067 33.0383 0.860144 33.4314 0.515794C33.8244 0.171445 34.3239 -0.000486025 34.9298 1.0319e-06C35.5523 1.0319e-06 36.0561 0.171932 36.4414 0.515794C36.8267 0.859657 37.019 1.31018 37.0186 1.86738C37.0186 2.42457 36.8262 2.87924 36.4414 3.23138C36.0566 3.58352 35.5528 3.75959 34.9298 3.75959Z" fill="white"/>
<path d="M5.57973 36.7713C2.3878 36.7713 0.000976562 34.2639 0.000976562 30.5942C0.000976562 26.8455 2.46086 24.4507 5.62648 24.4507C7.0767 24.4507 8.64307 25.0454 9.50735 26.1683L7.80874 28.0839C7.33971 27.3577 6.50538 27.0107 5.71489 27.0107C3.97244 27.0107 2.72752 28.5303 2.72752 30.5905C2.72752 32.7216 3.94249 34.1748 5.67032 34.1748C6.10765 34.181 6.53927 34.0749 6.92389 33.8666C7.30852 33.6584 7.6333 33.355 7.86719 32.9854L9.60964 34.8352C8.6986 36.0283 7.32217 36.7713 5.57973 36.7713Z" fill="white"/>
<path d="M23.4137 36.456L22.6101 34.1605H18.5962L17.835 36.456H15.1113L19.4605 24.7666H21.8912L26.1958 36.456H23.4137ZM20.6316 27.8862L19.3166 31.8993H21.9182L20.6316 27.8862Z" fill="white"/>
<path d="M37.2496 32.0483H36.0076V36.456H33.501V24.7666H37.3081C39.578 24.7666 41.3643 25.6908 41.3643 28.3669C41.3643 31.0737 39.4165 32.0483 37.2496 32.0483ZM37.1035 27.0438H36.0076V29.8018H37.0619C37.9985 29.8018 38.8627 29.4884 38.8627 28.3815C38.8606 27.2586 37.9963 27.0438 37.1035 27.0438Z" fill="white"/>
<path d="M49.8994 36.456V24.7666H52.4177V36.456H49.8994Z" fill="white"/>
<path d="M66.4612 27.1775V36.456H63.9575V27.1775H61.0293V24.7666H69.3901V27.1775H66.4612Z" fill="white"/>
<path d="M84.2955 36.456L83.4919 34.1605H79.4795L78.7168 36.456H75.9932L80.3423 24.7666H82.7759L87.0805 36.456H84.2955ZM81.5135 27.8862L80.1984 31.8993H82.8051L81.5135 27.8862Z" fill="white"/>
<path d="M94.2383 36.456V24.7666H96.7566V33.9968H100.769V36.456H94.2383Z" fill="white"/>
</svg>
