<svg width="174" height="99" viewBox="0 0 174 99" fill="none" xmlns="http://www.w3.org/2000/svg">
<path fill-rule="evenodd" clip-rule="evenodd" d="M93.7015 34.4661C93.6877 34.4542 93.6792 34.4466 93.6727 34.4408C93.6846 34.4514 93.7015 34.4661 93.7015 34.4661ZM147.908 29.6531C147.947 29.6399 147.935 29.644 147.908 29.6531ZM51.37 6.48558L55.9217 6.07345C56.7837 5.99527 57.3636 5.38397 57.3636 4.55245V2.46687C57.3636 1.79749 56.917 1.16255 55.9217 1.25283L51.37 1.66477C50.3747 1.75486 49.9292 2.4706 49.9292 3.13998V5.22556C49.9292 6.05726 50.5082 6.56358 51.37 6.48558ZM136.42 24.3219C138.017 25.5477 139.981 26.0678 142.26 25.8615C145.417 25.5758 147.808 25.0527 149.584 24.2646C150.199 23.985 150.552 23.4686 150.552 22.8467V21.0538C150.554 19.8812 149.576 19.6068 148.884 19.8429C147.209 20.397 145.045 20.7885 142.26 21.0404C141.499 21.1092 140.847 20.9022 140.322 20.4184C139.794 19.9322 139.526 19.3191 139.526 18.589V9.91477C139.526 9.18805 139.794 8.52314 140.321 7.94478C140.849 7.36624 141.501 7.04048 142.26 6.9718C145.041 6.72013 147.268 6.71994 148.873 6.96919C149.664 7.09596 150.552 6.6211 150.552 5.45787V3.66435C150.552 3.07483 150.237 2.62901 149.625 2.41736C147.86 1.95013 145.451 1.86208 142.26 2.15098C139.983 2.35705 138.001 3.2485 136.372 4.79798C134.77 6.316 133.922 8.26328 133.922 10.422V19.0962C133.921 21.2905 134.761 23.0466 136.42 24.3219ZM63.0107 33.0354L65.7325 32.7892C66.5944 32.711 67.1744 32.0989 67.1744 31.268V16.4245C67.1744 15.7296 67.4486 15.0578 67.9709 14.4517C68.4958 13.8763 69.1475 13.5506 69.9094 13.4815L73.5693 13.1504C74.3023 13.0841 74.9315 13.2995 75.4592 13.8134C75.989 14.2993 76.255 14.9024 76.255 15.6026V30.4459C76.255 31.2771 76.8367 31.784 77.6987 31.706L80.4663 31.4554C80.6034 31.4429 80.7361 31.3999 80.8615 31.3335C81.6863 30.8934 81.8606 30.3333 81.8606 29.9387V15.0952C81.8606 14.3975 82.1344 13.7259 82.658 13.1223C83.183 12.5467 83.8347 12.2211 84.5958 12.1522L88.2545 11.8211C88.9946 11.7541 89.6294 11.9693 90.1929 12.4799C90.7228 12.9657 90.9897 13.5686 90.9897 14.2689V29.1124C90.9897 29.9434 91.5702 30.4504 92.4322 30.3724L95.1522 30.1263C96.014 30.0481 96.594 29.4361 96.594 28.6051V13.7617C96.594 11.5516 95.7497 9.80662 94.0967 8.58271C92.4975 7.35116 90.5305 6.83405 88.2543 7.04011L84.5956 7.37127C82.4384 7.56653 80.5814 8.34202 79.0582 9.67985C77.542 8.61714 75.699 8.17653 73.5693 8.36938L69.9094 8.70072C67.6535 8.90474 65.6761 9.7759 64.0203 11.3051C62.4178 12.8239 61.5699 14.77 61.5699 16.9319V31.7754C61.5697 32.6065 62.149 33.1134 63.0107 33.0354ZM93.7659 34.5211C94.0174 34.7576 94.2743 35.0693 94.5375 35.4563C94.8005 35.8436 95.0725 36.2474 95.353 36.6681L105.366 50.9814V35.702C105.366 34.7092 105.579 33.9468 106.006 33.4148C106.017 33.401 106.03 33.3889 106.041 33.3753L93.7015 34.4661C93.7227 34.4849 93.7453 34.5017 93.7659 34.5211ZM55.0308 10.0475L52.2622 10.2982C51.2667 10.3883 50.8203 11.1065 50.8203 11.7766V32.7486C50.8203 33.5795 51.4004 34.0866 52.2622 34.0086L55.0308 33.758C55.8917 33.68 56.4715 33.068 56.4715 32.2369V11.2649C56.4715 10.5949 56.0261 9.95721 55.0308 10.0475ZM99.3898 7.81485C99.7133 7.63764 99.9808 7.39621 100.197 7.1222L105.702 12.7915L102.418 13.9018C102.314 13.5835 102.125 13.2969 101.848 13.0833C101.035 12.4583 99.8147 12.6574 99.1148 13.5299C98.4172 14.4022 98.5065 15.6161 99.3177 16.2415C100.128 16.866 101.352 16.6642 102.048 15.7927C102.241 15.5539 102.368 15.2899 102.441 15.0167L105.735 16.5501C105.735 16.6155 105.725 16.6793 105.725 16.7445C105.725 23.7925 111.443 28.989 118.496 28.3505C125.549 27.712 131.267 21.4804 131.267 14.4323C131.267 7.3843 125.549 2.1884 118.496 2.82688C115.852 3.06626 113.396 4.09156 111.359 5.65165L108.576 3.72504C108.782 3.40393 108.914 3.0348 108.934 2.64017C108.988 1.5004 108.111 0.612671 106.972 0.658277C105.837 0.708164 104.87 1.6737 104.814 2.8159C104.76 3.95548 105.637 4.84321 106.775 4.79351C107.085 4.7816 107.381 4.69523 107.652 4.56009L108.26 8.37757L100.737 5.82551C100.787 5.40668 100.731 4.97966 100.546 4.59192C100.003 3.46071 98.6055 3.0698 97.4241 3.71759C96.2433 4.36538 95.7259 5.80987 96.269 6.9409C96.8102 8.07211 98.2111 8.4645 99.3898 7.81485ZM121.331 19.9382C122.267 19.8535 123.023 20.5458 123.023 21.4772C123.023 22.4126 122.267 23.2391 121.331 23.324C120.394 23.4087 119.638 22.719 119.638 21.7838C119.638 20.8522 120.394 20.0231 121.331 19.9382ZM115.441 20.4715C116.378 20.3866 117.135 21.0787 117.135 22.0102C117.135 22.9454 116.378 23.772 115.441 23.8569C114.504 23.9418 113.748 23.252 113.748 22.3169C113.748 21.3853 114.504 20.556 115.441 20.4715ZM128.402 31.3931C128.358 31.3916 128.339 31.3908 128.333 31.3906C128.343 31.391 128.374 31.3921 128.402 31.3931ZM124.533 35.6973L121.095 35.9808V53.416L125.041 53.0904C125.906 53.019 126.584 52.9397 127.075 52.8525C127.566 52.7652 128.075 52.6065 128.601 52.376C129.127 52.1459 129.582 51.8455 129.969 51.4747C131.71 49.8589 132.581 47.2523 132.581 43.6543C132.581 41.1196 132.198 39.2527 131.433 38.0543C130.667 36.8559 129.723 36.1308 128.601 35.8786C127.479 35.6268 126.122 35.5661 124.533 35.6973ZM68.8741 51.8198L76.5547 51.186L72.6791 40.9048L68.8741 51.8198ZM161.106 34.1746C160.856 34.1746 160.847 34.3526 160.847 34.3526C160.847 34.3744 160.849 34.3962 160.849 34.4181C160.849 35.0374 160.63 35.6132 160.191 36.1457C159.753 36.6787 159.207 36.9719 158.552 37.0258C157.956 37.075 157.502 36.9635 157.193 36.691C156.883 36.4188 156.547 35.9589 156.184 35.3111C155.717 34.3803 155.156 33.6702 154.501 33.1808C153.846 32.6918 152.794 32.5068 151.344 32.6265C150 32.7376 148.916 33.1222 148.092 33.7796C147.267 34.4378 146.855 35.1813 146.855 36.0108C146.855 36.5249 146.996 36.9572 147.276 37.3078C147.557 37.6587 147.942 37.948 148.434 38.176C148.925 38.4046 149.421 38.5738 149.924 38.684C150.427 38.7944 151.257 38.948 152.414 39.1444C153.864 39.3638 155.176 39.6291 156.351 39.9411C157.526 40.2531 158.525 40.667 159.35 41.183C160.174 41.6992 160.817 42.385 161.278 43.2405C161.304 43.2885 161.327 43.3397 161.351 43.3891V34.3528C161.352 34.3524 161.319 34.1746 161.106 34.1746ZM117.892 32.248C117.788 32.2806 117.687 32.3152 117.591 32.3539L117.892 32.3273V32.248ZM128.444 31.3944C128.432 31.394 128.426 31.3938 128.416 31.3934C128.432 31.394 128.444 31.3944 128.444 31.3944ZM157.254 53.9542C155.711 54.7825 153.881 55.284 151.766 55.4584C149.229 55.6678 147.136 55.3614 145.488 54.5396C144.319 53.9467 143.369 53.1053 142.638 52.0149C141.907 50.9244 141.542 49.836 141.542 48.7497C141.542 48.1187 141.761 47.5606 142.199 47.0746C142.638 46.5887 143.196 46.3177 143.874 46.2617C144.424 46.2164 144.888 46.3533 145.268 46.6723C145.648 46.9915 145.972 47.4846 146.242 48.1514C146.569 48.9424 146.922 49.5967 147.302 50.1141C147.682 50.6322 148.217 51.0406 148.907 51.3397C149.596 51.6392 150.503 51.7426 151.625 51.65C153.168 51.5225 154.422 51.06 155.386 50.2619C156.351 49.4639 156.833 48.5278 156.833 47.4528C156.833 46.6005 156.573 45.9298 156.053 45.441C155.532 44.9523 154.86 44.6018 154.036 44.3896C153.212 44.1772 152.11 43.9702 150.731 43.7686C148.883 43.4892 147.337 43.1111 146.092 42.6357C144.847 42.1601 143.859 41.4531 143.129 40.5146C142.398 39.576 142.033 38.3653 142.033 36.8816C142.033 35.4682 142.418 34.1806 143.19 33.0189C143.962 31.8573 145.078 30.921 146.539 30.2105C146.949 30.0115 147.381 29.8363 147.83 29.6803L128.444 31.3944C129.154 31.4174 129.809 31.48 130.407 31.5853C131.669 31.8083 132.815 32.3271 133.844 33.1417C136.521 35.2105 137.859 38.5813 137.859 43.2537C137.859 44.7956 137.725 46.2146 137.456 47.5098C137.187 48.8054 136.772 49.9874 136.211 51.0557C135.65 52.1242 134.931 53.0977 134.054 53.9759C133.364 54.6524 132.61 55.2108 131.792 55.6522C130.973 56.0937 130.094 56.4292 129.153 56.6583C128.211 56.8878 127.15 57.0513 125.97 57.1488L119.183 57.7089C118.237 57.7871 117.523 57.703 117.044 57.4561C116.565 57.2097 116.252 56.8322 116.106 56.3245C115.96 55.8169 115.887 55.1483 115.887 54.3188V35.4819C115.887 34.3604 116.138 33.528 116.641 32.9842C116.884 32.7208 117.202 32.5116 117.591 32.3541L109.449 33.0741C109.467 33.092 109.486 33.1076 109.504 33.1263C109.936 33.5873 110.153 34.3141 110.153 35.3068V55.5103C110.153 57.7649 109.217 58.9693 107.347 59.1236C106.879 59.1623 106.458 59.1296 106.085 59.0265C105.71 58.9228 105.359 58.7387 105.032 58.4736C104.705 58.2087 104.401 57.8923 104.121 57.5237C103.84 57.1555 103.559 56.7787 103.279 56.3929L93.5115 42.2346V57.2865C93.5115 58.2677 93.2834 59.0285 92.8276 59.5681C92.3717 60.108 91.7868 60.4077 91.0741 60.4665C90.3375 60.5272 89.7468 60.3218 89.3029 59.8502C88.8584 59.3786 88.6365 58.6584 88.6365 57.6888V37.8706C88.6365 37.0296 88.7299 36.362 88.917 35.8673C89.0763 35.4767 89.3126 35.1305 89.6227 34.8267L75.1943 36.1026C75.3868 36.2615 75.5569 36.4413 75.704 36.6422C76.0022 37.0499 76.2533 37.4936 76.4579 37.9729C76.6624 38.4528 76.9227 39.0941 77.2382 39.8975L83.9545 55.9195C84.4808 57.1378 84.7438 58.033 84.7438 58.6056C84.7438 59.2012 84.4951 59.7679 83.9985 60.3055C83.5016 60.8427 82.9026 61.1405 82.201 61.1984C81.7917 61.2323 81.441 61.188 81.1491 61.0662C80.8567 60.9441 80.6114 60.7664 80.4126 60.5313C80.2136 60.2965 80.0004 59.9287 79.7724 59.4274C79.5444 58.9269 79.3485 58.4842 79.1849 58.1004L77.9575 54.9778L67.5063 55.84L66.2787 59.2357C65.7991 60.5603 65.39 61.4614 65.0512 61.9389C64.7119 62.4162 64.1568 62.6874 63.3852 62.7509C62.7303 62.8049 62.1518 62.6131 61.6492 62.1757C61.1464 61.7382 60.8953 61.2157 60.8953 60.6083C60.8953 60.2578 60.9536 59.8909 61.0705 59.5073C61.1872 59.124 61.3802 58.5881 61.6492 57.9003L68.2252 40.676C68.4119 40.1818 68.6371 39.588 68.9002 38.8944C69.1634 38.2012 69.4437 37.6202 69.7419 37.1515C69.8823 36.9309 70.0442 36.7282 70.2259 36.5417L53.3556 38.0334C53.4988 38.0753 53.6393 38.1204 53.7756 38.1712C54.5822 38.4435 55.2951 38.8692 55.915 39.4489C56.5345 40.0286 57.0048 40.7231 57.3265 41.5315C57.648 42.3403 57.8088 43.2118 57.8088 44.1463C57.8088 46.0621 57.2679 47.6371 56.1866 48.8712C55.105 50.1054 53.4657 51.0523 51.268 51.7128C52.1913 52.1271 53.0742 52.7788 53.9159 53.6669C54.7577 54.5554 55.5086 55.5128 56.1692 56.5386C56.8295 57.565 57.3442 58.498 57.7124 59.3377C58.0808 60.1778 58.2647 60.7613 58.2647 61.088C58.2647 61.427 58.1565 61.7717 57.9402 62.1226C57.7238 62.4733 57.4287 62.7605 57.0547 62.9841C56.6804 63.2077 56.2482 63.3398 55.7571 63.3804C55.1724 63.4286 54.6812 63.3316 54.2841 63.09C53.8863 62.8484 53.5446 62.5288 53.2583 62.1321C52.9716 61.7353 52.5831 61.1481 52.0921 60.371L50.0054 57.0736C49.2571 55.8622 48.5879 54.9478 47.9976 54.3307C47.4072 53.7135 46.8078 53.3075 46.2002 53.1122C45.5922 52.917 44.8262 52.8576 43.903 52.9337L42.0793 53.0843V61.3375C42.0793 62.4238 41.8395 63.244 41.3604 63.7974C40.8809 64.351 40.2556 64.6596 39.484 64.7233C38.6538 64.7918 38.0111 64.576 37.555 64.0762C37.0991 63.5768 36.8713 62.8071 36.8713 61.7673V42.0019C36.8713 40.8804 37.1224 40.0479 37.6252 39.504C37.6537 39.4733 37.6868 39.4457 37.7171 39.4163L27.4249 40.3264C27.6719 40.4156 27.9104 40.5179 28.1384 40.6373C28.7462 40.9492 29.284 41.3636 29.7517 41.8796C30.2192 42.3962 30.5758 42.9801 30.8213 43.6312C31.0669 44.2827 31.1897 44.9825 31.1897 45.7298C31.1897 48.3 29.9035 50.2867 27.3318 51.6904C30.7102 52.4864 32.3997 54.4381 32.3997 57.5453C32.3997 58.9822 32.0313 60.3064 31.2949 61.5177C30.5583 62.7293 29.5647 63.6611 28.314 64.3132C27.5306 64.705 26.6304 65.0101 25.6133 65.2281C24.5962 65.4466 23.4096 65.6116 22.0535 65.7234L14.1974 66.3716C13.0632 66.4652 12.2536 66.278 11.7687 65.8096C11.722 65.7646 11.6781 65.7154 11.6358 65.6642V66.6815C11.6358 66.6815 11.733 66.869 11.9221 66.9185C18.3652 68.6063 131.405 98.2205 131.405 98.2205L161.352 51.0596V49.6134C161.189 50.0039 160.997 50.3852 160.77 50.7554C159.969 52.0601 158.797 53.126 157.254 53.9542ZM161.393 49.514C161.382 49.5395 161.371 49.5676 161.358 49.5989C161.365 49.5816 161.378 49.5499 161.393 49.514ZM171.377 1.58659C169.777 0.35523 167.811 -0.161883 165.535 0.0439943C162.684 0.301993 160.536 0.675402 159.116 1.16701C158.104 1.55364 157.995 2.30995 157.995 2.61635V4.49158C157.995 4.85531 158.091 5.1552 158.278 5.38267C158.519 5.67063 158.878 5.80801 159.291 5.7706C159.359 5.76445 159.525 5.73523 159.592 5.71512C160.692 5.38006 162.691 5.08241 165.535 4.82497C166.268 4.7587 166.898 4.97426 167.426 5.48803C167.957 5.97368 168.223 6.57679 168.223 7.27708V8.51737L161.876 9.09182C159.595 9.29825 157.615 10.1869 155.986 11.7362C154.361 13.2797 153.537 15.1581 153.537 17.3204C153.537 19.5113 154.377 21.2691 156.034 22.5465C157.632 23.7719 159.597 24.2918 161.876 24.0857L172.433 23.1302C173.254 23.0559 173.828 22.4307 173.828 21.6133V6.76964C173.828 4.6109 172.98 2.81739 171.377 1.58659ZM168.223 18.6899L161.876 19.2643C161.115 19.3332 160.464 19.126 159.938 18.6422C159.409 18.1562 159.141 17.5432 159.141 16.813C159.141 16.1121 159.409 15.4604 159.938 14.8824C160.464 14.3069 161.115 13.9811 161.876 13.9123L168.223 13.3376V18.6899ZM42.0793 49.3521L46.7437 48.9675C47.9946 48.8642 49.0469 48.6695 49.9002 48.3826C50.7535 48.0961 51.4054 47.6745 51.8555 47.1174C52.3054 46.5606 52.5305 45.8263 52.5305 44.9151C52.5305 44.2027 52.349 43.5895 51.9869 43.0761C51.6245 42.5629 51.1217 42.1987 50.4788 41.9829C49.8708 41.7763 48.6726 41.7463 46.8839 41.8939L42.0791 42.2902V49.3521H42.0793ZM25.7535 54.8871C24.8418 54.3784 23.4795 54.1986 21.6678 54.348L16.2493 54.7952V62.2946L21.8431 61.8332C25.3619 61.5428 27.1215 60.1303 27.1215 57.5952C27.1213 56.2987 26.6654 55.396 25.7535 54.8871ZM26.8762 36.3066L29.598 36.0601C30.4597 35.9821 31.038 35.3703 31.038 34.5391V19.6956C31.038 19.0009 31.3118 18.3291 31.8355 17.7225C32.3604 17.1473 33.0119 16.8215 33.7731 16.7527L37.4338 16.4213C38.1667 16.3551 38.7951 16.5708 39.3238 17.0844C39.8532 17.5702 40.1203 18.1731 40.1203 18.8734V33.7169C40.1203 34.5479 40.7001 35.0549 41.562 34.9771L44.3316 34.7262C45.152 34.6521 45.7259 34.0267 45.7259 33.2095V18.366C45.7259 16.1561 44.8808 14.4113 43.2284 13.1872C41.6294 11.9557 39.68 11.4371 37.4338 11.6403L33.7731 11.9717C31.519 12.1759 29.5405 13.047 27.8849 14.5762C26.2822 16.095 25.4343 18.0412 25.4343 20.2031V35.0465C25.4345 35.8773 26.0143 36.3846 26.8762 36.3066ZM27.4249 40.3264C27.4139 40.3225 27.4082 40.3204 27.3996 40.3173C27.4137 40.3223 27.4249 40.3264 27.4249 40.3264ZM16.2491 51.0627L21.0189 50.6694C22.3165 50.5624 23.3187 50.3569 24.0263 50.0531C24.7334 49.7495 25.2742 49.2378 25.6483 48.5176C25.9404 48.0027 26.0867 47.4416 26.0867 46.8343C26.0867 45.5376 25.6247 44.7144 24.7014 44.3639C23.7779 44.0138 22.3692 43.9168 20.4753 44.073L16.2493 44.4216V51.0627H16.2491ZM20.2929 35.5119V20.6684C20.2929 18.5097 19.4454 16.7162 17.8417 15.4854C16.2416 14.254 14.2748 13.7369 11.9994 13.9428C9.14834 14.2008 7.0004 14.5742 5.57973 15.0658C4.56747 15.4526 4.45876 16.2087 4.45876 16.5151V18.3904C4.45876 18.7541 4.55518 19.054 4.7417 19.2815C4.9822 19.5694 5.34202 19.7068 5.75489 19.6694C5.82284 19.6632 5.98888 19.634 6.05534 19.6139C7.15676 19.2787 9.15542 18.9812 11.9994 18.7238C12.7313 18.6575 13.3623 18.8731 13.8912 19.3868C14.4198 19.8727 14.6867 20.4756 14.6867 21.1759V22.4163L8.34065 22.9906C6.06073 23.197 4.07977 24.0857 2.45154 25.6346C0.824813 27.1785 0 29.0569 0 31.219C0 33.41 0.840822 35.1694 2.49901 36.4449C4.09652 37.6705 6.06166 38.1904 8.34065 37.9841L18.8972 37.0286C19.7192 36.9544 20.2929 36.3291 20.2929 35.5119ZM14.6866 32.5887L8.34047 33.1631C7.57931 33.232 6.92687 33.025 6.40287 32.541C5.87235 32.0552 5.60542 31.4418 5.60542 30.7118C5.60542 30.0109 5.87235 29.3592 6.40287 28.7812C6.92687 28.2059 7.57931 27.8799 8.34047 27.811L14.6866 27.2366V32.5887Z" fill="white"/>
</svg>
