<svg width="320" height="321" viewBox="0 0 320 321" fill="none" xmlns="http://www.w3.org/2000/svg">
<path d="M10.0271 160.751C4.48835 160.751 -0.0344894 156.257 0.312809 150.729C1.68 128.968 7.48824 107.679 17.4192 88.188C27.3501 68.6974 41.1592 51.4851 57.9608 37.5881C62.2288 34.0579 68.5235 35.0751 71.7791 39.556L90.053 64.7079C93.3087 69.1888 92.2794 75.4273 88.1175 79.082C77.7927 88.1483 69.2571 99.1115 62.9916 111.408C56.726 123.705 52.8738 137.055 51.6077 150.737C51.0974 156.252 46.6553 160.751 41.1165 160.751H10.0271Z" fill="#F382FF"/>
<path d="M71.9017 39.4671C68.6506 34.9828 69.6349 28.6828 74.3141 25.7192C97.0648 11.3103 123.093 2.88235 149.971 1.22116C155.499 0.879498 159.99 5.40689 159.984 10.9457L159.953 42.035C159.947 47.5738 155.443 52.0113 149.927 52.5161C133.852 53.9871 118.303 59.022 104.416 67.2526C99.6517 70.0767 93.4012 69.1216 90.1502 64.6374L71.9017 39.4671Z" fill="#EE03C3"/>
<path d="M159.833 10.9456C159.833 5.4068 164.328 0.883956 169.856 1.2312C200.062 3.12867 229.185 13.5721 253.781 31.4424C281.089 51.2823 301.414 79.2579 311.845 111.36C322.275 143.461 322.275 178.041 311.845 210.143C302.45 239.057 285.027 264.625 261.705 283.914C257.437 287.445 251.142 286.427 247.887 281.947L229.613 256.795C226.357 252.314 227.387 246.075 231.549 242.421C246.183 229.57 257.145 212.977 263.201 194.337C270.294 172.508 270.294 148.994 263.201 127.165C256.108 105.336 242.287 86.3124 223.718 72.8212C207.862 61.3017 189.241 54.3205 169.848 52.5261C164.333 52.0158 159.833 47.5737 159.833 42.035V10.9456Z" fill="#EE034A"/>
<path d="M247.71 282.075C250.959 286.56 249.972 292.86 245.292 295.821C219.716 312.004 190.003 320.63 159.601 320.586C129.198 320.542 99.5107 311.829 73.9818 295.572C69.3099 292.597 68.3411 286.295 71.6032 281.819L89.9137 256.693C93.1758 252.217 99.4286 251.277 104.186 254.113C120.916 264.085 140.077 269.41 159.675 269.439C179.273 269.467 198.45 264.197 215.208 254.275C219.974 251.453 226.224 252.41 229.473 256.896L247.71 282.075Z" fill="#820027"/>
<path d="M71.3516 281.635C68.0802 286.104 61.7819 287.099 57.5264 283.554C40.774 269.598 27.0258 252.337 17.1637 232.811C7.30168 213.285 1.56868 191.976 0.278392 170.21C-0.0493724 164.681 4.48932 160.202 10.0281 160.222L41.1173 160.332C46.656 160.351 51.0821 164.867 51.573 170.384C52.7907 184.07 56.5958 197.433 62.8178 209.752C69.0399 222.071 77.5368 233.064 87.8295 242.167C91.9785 245.836 92.9857 252.078 89.7142 256.548L71.3516 281.635Z" fill="#AAAAAA"/>
</svg>
