<?xml version="1.0" encoding="UTF-8"?>
<svg id="Layer_1" xmlns="http://www.w3.org/2000/svg" width="37" height="36" xmlns:xlink="http://www.w3.org/1999/xlink" viewBox="0 0 37 36">
  <defs>
    <style>
      .cls-1, .cls-2 {
        fill: none;
      }

      .cls-3 {
        fill: #eee1d2;
      }

      .cls-2 {
        stroke: #755410;
        stroke-linecap: round;
        stroke-linejoin: round;
        stroke-width: .32px;
      }

      .cls-4 {
        clip-path: url(#clippath);
      }
    </style>
    <clipPath id="clippath">
      <rect class="cls-1" width="37" height="36"/>
    </clipPath>
  </defs>
  <g class="cls-4">
    <g>
      <path class="cls-3" d="M12.69,28.87l-3.66.35c-.64.06-1.22-.03-1.79-.26-.56-.24-1.02-.59-1.39-1.07l-2.25-3c-.36-.45-.56-.94-.61-1.51-.05-.57.05-1.08.32-1.59l1.68-3.42-2.29-3.02c-.36-.45-.56-.96-.61-1.51-.05-.56.05-1.1.32-1.6l1.65-3.37c.26-.54.66-.98,1.17-1.31.51-.34,1.08-.55,1.7-.61l3.66-.35,1.64-3.33c.26-.54.66-.98,1.17-1.31.51-.34,1.08-.55,1.7-.61l3.71-.35c.64-.06,1.22.03,1.79.28.56.24,1.02.59,1.39,1.07l2.25,2.96,3.66-.35c.64-.06,1.22.03,1.79.28.56.24,1.01.59,1.39,1.07l2.24,3c.36.45.56.94.61,1.51.05.57-.05,1.1-.32,1.6l-1.68,3.4,2.29,3.04c.36.45.56.94.61,1.5.05.56-.05,1.1-.32,1.6l-1.63,3.36c-.26.54-.66.98-1.17,1.31-.51.34-1.08.54-1.7.6l-3.66.35-1.65,3.33c-.26.54-.66.98-1.17,1.31-.51.34-1.08.54-1.7.59l-3.71.35c-.64.06-1.22-.03-1.79-.26-.56-.24-1.01-.59-1.39-1.07l-2.23-2.97ZM25.13,14.85l3.71-.35,1.6-3.36-2.2-3-3.71.35-1.65,3.37,2.25,3ZM16.95,20.44l3.63-.34,1.63-3.36-2.24-3-3.63.34-1.63,3.36,2.24,3ZM16.04,10.9l3.63-.34,1.68-3.42-2.23-2.95-3.71.35-1.64,3.32,2.29,3.04h-.02ZM13.13,12.78l-2.24-3-3.66.35-1.63,3.36,2.24,3,3.66-.35,1.63-3.36ZM14.04,22.32l-2.24-3-3.71.35-1.6,3.36,2.24,3,3.66-.35,1.63-3.36h.02ZM17.25,23.62l-1.68,3.4,2.23,2.97,3.71-.35,1.64-3.33-2.29-3.02-3.63.34h.02ZM26.04,24.39l3.66-.35,1.63-3.36-2.24-3-3.66.35-1.65,3.37,2.25,3Z"/>
      <path class="cls-2" d="M25,14.95s.09.07.14.06l3.71-.35c.06,0,.11-.04.13-.09l1.6-3.36c.03-.05.02-.12-.02-.16l-2.2-3s-.09-.07-.14-.06l-3.71.35c-.06,0-.1.04-.13.09l-1.65,3.37c-.03.05-.02.12.02.17l2.25,3ZM16.82,20.54s.09.07.14.06l3.63-.34c.06,0,.1-.04.13-.09l1.63-3.36c.03-.05.02-.12-.02-.17l-2.24-3s-.09-.07-.14-.06l-3.63.34c-.06,0-.1.04-.13.09l-1.63,3.36c-.03.05-.02.12.02.17l2.24,3ZM15.88,10.93c.02.08.09.13.17.13h.02s3.61-.34,3.61-.34c.06,0,.1-.04.13-.09l1.68-3.42c.03-.05.02-.12-.02-.17l-2.23-2.95s-.09-.07-.14-.06l-3.71.35c-.06,0-.1.04-.13.09l-1.64,3.32c-.03.05-.02.12.02.17l2.25,2.98ZM13.28,12.85c.03-.05.02-.12-.02-.17l-2.24-3s-.09-.07-.14-.06l-3.66.35c-.06,0-.1.04-.13.09l-1.63,3.36c-.03.05-.02.12.02.17l2.24,3s.09.07.14.06l3.66-.35c.06,0,.1-.04.13-.09l1.63-3.36ZM14.14,22.45s.03-.04.05-.06c.02-.05.02-.11-.02-.16l-2.24-3s-.09-.07-.14-.06l-3.71.35c-.06,0-.11.04-.13.09l-1.6,3.36c-.03.05-.02.12.02.16l2.24,3s.09.07.14.06l3.66-.35c.06,0,.1-.04.13-.09l1.61-3.31ZM17.07,23.62l-1.65,3.33c-.03.05-.02.12.02.17l2.23,2.97s.09.07.14.06l3.71-.35c.06,0,.1-.04.13-.09l1.64-3.33c.03-.05.02-.12-.02-.17l-2.29-3.02s-.09-.07-.14-.06l-3.61.34h-.02c-.08,0-.14.08-.15.16ZM25.91,24.49s.09.07.14.06l3.66-.35c.06,0,.1-.04.13-.09l1.63-3.36c.03-.05.02-.12-.02-.17l-2.24-3s-.09-.07-.14-.06l-3.66.35c-.06,0-.1.04-.13.09l-1.65,3.37c-.03.05-.02.12.02.17l2.25,3Z"/>
    </g>
  </g>
</svg>