<?xml version="1.0" encoding="UTF-8"?>
<svg id="Layer_1" xmlns="http://www.w3.org/2000/svg" width="37.25" height="37.25" viewBox="0 0 37.25 37.25">
  <defs>
    <style>
      .cls-1 {
        fill: #f1ebe4;
      }

      .cls-2 {
        fill: none;
        stroke: #755410;
        stroke-width: .64px;
      }
    </style>
  </defs>
  <path class="cls-1" d="M29.3,27.07c.95,2.48.64,4.8-.93,6.95-1.57,2.15-3.79,3.23-6.64,3.23-1.37,0-2.66-.35-3.88-1.06-1.22-.7-2.12-1.63-2.7-2.79-3.44.5-6.28-.38-8.54-2.64-2.26-2.26-3.18-5.14-2.76-8.66-1.24-.7-2.19-1.67-2.86-2.89-.66-1.22-.99-2.62-.99-4.19,0-2.52,1.15-4.56,3.45-6.12,2.3-1.55,4.54-1.87,6.74-.96l3.85,1.61c.83-1.28,1.92-2.33,3.29-3.14,1.37-.81,2.84-1.25,4.41-1.33V1.86c0-.54.18-.98.53-1.33.35-.35.8-.53,1.33-.53s.98.18,1.33.53c.35.35.53.8.53,1.33v3.72c1.53.46,2.79,1.17,3.79,2.14.99.97,1.84,2.33,2.55,4.07h3.6c.54,0,.98.18,1.33.53.35.35.53.8.53,1.33s-.18.98-.53,1.33c-.35.35-.8.53-1.33.53h-3.23c-.08,1.57-.51,3.04-1.27,4.41-.77,1.37-1.79,2.46-3.07,3.29l1.49,3.85ZM13.91,28.56c0-1.12.09-2.2.28-3.26.19-1.06.47-2.08.84-3.07-.95.46-1.98.78-3.07.96-1.1.19-2.18.24-3.26.16,0,1.61.47,2.89,1.4,3.82.93.93,2.2,1.4,3.82,1.4ZM9.31,18.38c1.32,0,2.49-.17,3.51-.5,1.01-.33,2.33-.99,3.94-1.99l-7.45-3.1c-1.2-.5-2.22-.49-3.07.03-.85.52-1.27,1.33-1.27,2.45s.35,1.86,1.06,2.36c.7.5,1.8.74,3.29.74ZM21.73,32.28c1.03,0,1.87-.36,2.51-1.09.64-.72.8-1.48.47-2.27l-3.35-8.44c-.79,1.32-1.4,2.65-1.83,3.97-.43,1.32-.65,2.52-.65,3.6,0,1.37.24,2.41.71,3.14.48.72,1.19,1.09,2.14,1.09ZM25.83,18.5c.41-.41.74-.96.99-1.65.25-.68.37-1.4.37-2.14,0-1.32-.43-2.44-1.3-3.35-.87-.91-1.95-1.37-3.23-1.37-.75,0-1.45.12-2.11.37-.66.25-1.22.6-1.68,1.06l4.84,2.24,2.11,4.84Z"/>
  <path class="cls-2" d="M15.44,33.26l-.1-.21-.23.03c-3.35.48-6.09-.37-8.26-2.55-2.18-2.18-3.07-4.96-2.67-8.4l.02-.21-.19-.11c-1.19-.67-2.1-1.59-2.73-2.76-.63-1.17-.95-2.51-.95-4.04,0-2.41,1.09-4.35,3.3-5.85,2.22-1.5,4.36-1.79,6.43-.93,0,0,0,0,0,0l3.85,1.61.25.1.15-.23c.8-1.24,1.86-2.25,3.18-3.03,1.32-.78,2.74-1.21,4.26-1.29l.3-.02V1.86c0-.46.15-.82.43-1.11.29-.29.65-.43,1.11-.43s.82.15,1.11.43c.29.29.43.65.43,1.11v3.96l.23.07c1.49.44,2.7,1.13,3.65,2.06.95.93,1.78,2.25,2.47,3.96l.08.2h3.82c.46,0,.82.15,1.11.43.29.29.43.65.43,1.11s-.15.82-.43,1.11c-.29.29-.65.43-1.11.43h-3.53l-.02.3c-.08,1.52-.49,2.95-1.23,4.27-.74,1.32-1.73,2.38-2.97,3.18l-.22.14.09.24,1.49,3.85s0,0,0,0c.91,2.38.62,4.58-.89,6.65-1.51,2.06-3.62,3.1-6.38,3.1-1.31,0-2.55-.34-3.72-1.01-1.17-.67-2.02-1.56-2.57-2.66ZM13.91,28.88h.32v-.32c0-1.1.09-2.17.27-3.2.18-1.04.46-2.04.82-3.02l.28-.75-.72.34c-.92.44-1.92.75-2.99.94-1.07.18-2.13.23-3.18.15l-.35-.03v.35c0,1.68.49,3.04,1.49,4.05,1,1,2.37,1.49,4.05,1.49ZM16.93,16.17l.53-.33-.58-.24-7.45-3.1h0c-1.26-.52-2.4-.53-3.36.05-.96.58-1.43,1.51-1.43,2.73s.38,2.05,1.19,2.62c.78.55,1.96.8,3.48.8,1.35,0,2.55-.17,3.61-.51,1.05-.34,2.39-1.02,4.01-2.02ZM21.66,20.37l-.24-.61-.33.56c-.8,1.34-1.42,2.69-1.86,4.04-.44,1.35-.67,2.58-.67,3.7,0,1.4.24,2.51.77,3.31.54.82,1.36,1.23,2.41,1.23,1.12,0,2.05-.4,2.75-1.19.35-.39.58-.81.67-1.26.09-.45.04-.9-.15-1.34l-3.35-8.44ZM25.53,18.63l.19.43.33-.33c.45-.45.81-1.05,1.07-1.76.26-.72.39-1.47.39-2.25,0-1.4-.46-2.6-1.39-3.57-.93-.98-2.09-1.47-3.46-1.47-.78,0-1.52.13-2.22.39-.7.26-1.3.64-1.79,1.13l-.33.33.42.19,4.73,2.18,2.06,4.73Z"/>
</svg>