<svg width="24" height="24" viewBox="0 0 24 24" fill="none" xmlns="http://www.w3.org/2000/svg">
<g clip-path="url(#clip0_362_6532)">
<path d="M8.90625 10.1016C9.29456 10.1016 9.60938 9.78675 9.60938 9.39844V6.07031C9.60938 5.682 9.29456 5.36719 8.90625 5.36719C8.51794 5.36719 8.20312 5.682 8.20312 6.07031V9.39844C8.20312 9.78675 8.51794 10.1016 8.90625 10.1016Z" fill="#FE3D76"/>
<path d="M8.90625 12.4453C9.29458 12.4453 9.60938 12.1305 9.60938 11.7422C9.60938 11.3539 9.29458 11.0391 8.90625 11.0391C8.51792 11.0391 8.20312 11.3539 8.20312 11.7422C8.20312 12.1305 8.51792 12.4453 8.90625 12.4453Z" fill="#FE3D76"/>
<path d="M23.8335 20.0791L16.3596 13.7759C17.2776 12.3754 17.8125 10.7023 17.8125 8.90625C17.8125 3.99534 13.8172 0 8.90625 0C3.9953 0 0 3.99534 0 8.90625C0 13.8172 3.9953 17.8125 8.90625 17.8125C10.7022 17.8125 12.3754 17.2776 13.7759 16.3596L20.0791 23.8335C20.1682 23.9391 20.2993 24 20.4375 24C22.4018 24 24 22.4019 24 20.4375C24 20.2994 23.9391 20.1683 23.8335 20.0791ZM8.90625 3.28125C12.0079 3.28125 14.5312 5.80463 14.5312 8.90625C14.5312 12.0079 12.0079 14.5312 8.90625 14.5312C5.80463 14.5312 3.28125 12.0079 3.28125 8.90625C3.28125 5.80463 5.80463 3.28125 8.90625 3.28125ZM15.804 14.5337L17.2463 15.7502C17.0289 16.4653 16.4653 17.0288 15.7502 17.2463L14.5337 15.804C14.9984 15.4241 15.4241 14.9984 15.804 14.5337Z" fill="#FE3D76"/>
</g>
<defs>
<clipPath id="clip0_362_6532">
<rect width="24" height="24" fill="white"/>
</clipPath>
</defs>
</svg>
