<svg width="24" height="24" viewBox="0 0 24 24" fill="none" xmlns="http://www.w3.org/2000/svg">
<g clip-path="url(#clip0_362_6527)">
<path d="M18.121 9.47566L18.3 9.90935L16.9128 11.2966H24V4.2094L22.3472 5.86221L21.8675 5.17048C19.7565 2.12641 16.3696 0.235898 12.7031 0.0205078V5.41741C15.1035 5.6704 17.1844 7.20659 18.121 9.47566Z" fill="#FE3D76"/>
<path d="M0 19.7903L1.65281 18.1375L2.13253 18.8292C4.37789 22.067 8.06667 24 12 24C15.181 24 18.2341 22.7291 20.477 20.4923L16.6737 16.689C15.438 17.9245 13.7733 18.6198 12 18.6198C9.30863 18.6198 6.906 17.0121 5.87902 14.524L5.7 14.0903L7.08717 12.7031H0L0 19.7903Z" fill="#FE3D76"/>
<path d="M4.20971 0L5.86257 1.65281L5.17079 2.13253C2.12668 4.24359 0.235927 7.63036 0.0206299 11.2969H5.41772C5.67071 8.89645 7.20685 6.81558 9.47597 5.87902L9.90966 5.7L11.2969 7.08722V0H4.20971Z" fill="#FE3D76"/>
</g>
<defs>
<clipPath id="clip0_362_6527">
<rect width="24" height="24" fill="white"/>
</clipPath>
</defs>
</svg>
