<svg width="24" height="24" viewBox="0 0 24 24" fill="none" xmlns="http://www.w3.org/2000/svg">
<g clip-path="url(#clip0_362_6536)">
<path d="M14.1552 4.21875C13.3799 4.21875 12.7489 4.84973 12.7489 5.625C12.7489 6.40027 13.3799 7.03125 14.1552 7.03125C14.9304 7.03125 15.5614 6.40027 15.5614 5.625C15.5614 4.84973 14.9304 4.21875 14.1552 4.21875Z" fill="#FE3D76"/>
<path d="M14.1551 9.84375C12.6041 9.84375 11.3427 11.105 11.3427 12.6562V14.0625H16.9676V12.6562C16.9676 11.105 15.7062 9.84375 14.1551 9.84375Z" fill="#FE3D76"/>
<path d="M14.1551 0C8.72717 0 4.3114 4.41577 4.3114 9.84374C4.3114 15.2715 8.72717 19.6873 14.1551 19.6873C19.5831 19.6873 23.9989 15.2715 23.9989 9.84374C23.9989 4.41577 19.5831 0 14.1551 0ZM18.3739 14.7656C18.3739 15.1542 18.0593 15.4687 17.6708 15.4687H10.6395C10.251 15.4687 9.9364 15.1542 9.9364 14.7656V12.6562C9.9364 10.3299 11.8288 8.43749 14.1551 8.43749C12.6041 8.43749 11.3426 7.17608 11.3426 5.62499C11.3426 4.07391 12.6041 2.8125 14.1551 2.8125C15.7062 2.8125 16.9676 4.07391 16.9676 5.62499C16.9676 7.17608 15.7062 8.43749 14.1551 8.43749C16.4815 8.43749 18.3739 10.3299 18.3739 12.6562V14.7656Z" fill="#FE3D76"/>
<path d="M4.85394 16.1621L0.616882 20.399C-0.205627 21.2217 -0.205627 22.5593 0.616882 23.3818C1.44104 24.2059 2.77551 24.2059 3.59967 23.3818L7.83672 19.1449C6.6654 18.3466 5.65228 17.3334 4.85394 16.1621Z" fill="#FE3D76"/>
</g>
<defs>
<clipPath id="clip0_362_6536">
<rect width="24" height="24" fill="white"/>
</clipPath>
</defs>
</svg>
