<svg width="24" height="24" viewBox="0 0 24 24" fill="none" xmlns="http://www.w3.org/2000/svg">
<g clip-path="url(#clip0_362_6522)">
<path d="M5.60853 4.86595L15.1762 2.25438L14.6695 1.23024C14.338 0.564545 13.5295 0.289643 12.8638 0.621143L4.29871 4.86595H5.60853Z" fill="#FE3D76"/>
<path d="M18.1463 2.33008C18.0277 2.33008 17.9091 2.34625 17.7905 2.37859L15.5428 2.99308L8.67834 4.86618H16.4699H19.8658L19.4453 3.32458C19.2836 2.72356 18.7392 2.33008 18.1463 2.33008Z" fill="#FE3D76"/>
<path d="M21.2699 5.80957H20.9626H20.5449H20.1271H16.9388H5.22313H3.68692H2.39326H2.1534H1.35025C0.924424 5.80957 0.544413 6.00631 0.296463 6.31625C0.183268 6.45909 0.0970241 6.6235 0.0485121 6.80407C0.0188658 6.91726 0 7.03585 0 7.15713V7.31883V8.85505V22.1716C0 22.9155 0.603706 23.5192 1.34756 23.5192H21.2672C22.011 23.5192 22.6147 22.9155 22.6147 22.1716V18.4119H14.6183C13.3543 18.4119 12.3275 17.3851 12.3275 16.1211V14.8867V14.469V14.0512V13.1241C12.3275 12.5042 12.5754 11.941 12.977 11.5286C13.3327 11.1621 13.8098 10.9141 14.3434 10.8521C14.4323 10.8414 14.524 10.836 14.6156 10.836H21.4935H21.9113H22.329H22.6147V7.15713C22.6174 6.41328 22.0137 5.80957 21.2699 5.80957Z" fill="#FE3D76"/>
<path d="M23.5607 12.1235C23.4259 11.9996 23.2669 11.9052 23.0891 11.8432C22.9516 11.7975 22.8061 11.7705 22.6524 11.7705H22.6174H22.5905H22.1727H20.6661H14.6183C13.8744 11.7705 13.2708 12.3742 13.2708 13.1181V13.7891V14.2069V14.6246V16.1177C13.2708 16.8616 13.8744 17.4653 14.6183 17.4653H22.6174H22.6524C22.8061 17.4653 22.9516 17.4383 23.0891 17.3925C23.2669 17.3332 23.4259 17.2362 23.5607 17.1122C23.8302 16.8669 24 16.5112 24 16.1177V13.1181C24 12.7246 23.8302 12.3688 23.5607 12.1235ZM17.432 14.886C17.432 15.258 17.1302 15.5598 16.7582 15.5598H16.3108C15.9389 15.5598 15.6371 15.258 15.6371 14.886V14.4386C15.6371 14.223 15.7368 14.0317 15.8958 13.9104C16.0117 13.8214 16.1546 13.7649 16.3108 13.7649H16.424H16.7582C17.1302 13.7649 17.432 14.0667 17.432 14.4386V14.886Z" fill="#FE3D76"/>
</g>
<defs>
<clipPath id="clip0_362_6522">
<rect width="24" height="24" fill="white"/>
</clipPath>
</defs>
</svg>
